<svg width="114" height="156" viewBox="0 0 114 156" fill="none" xmlns="http://www.w3.org/2000/svg">
<path d="M39.4425 23.8791C39.4425 15.7905 41.4949 9.95868 45.6002 6.38377C49.8135 2.73665 56.5654 0.913086 65.8564 0.913086H69.1512V39.8577C69.1512 56.6492 64.3618 67.4098 54.7828 72.1402C51.4338 73.8012 47.4189 74.6317 42.7372 74.6317H39.4425V23.8791ZM26.6945 74.6317C17.6558 74.6317 10.9218 71.472 6.4925 65.1531C2.38728 59.303 0.334655 50.8716 0.334655 39.8577V0.913086H3.62963C12.9204 0.913086 19.6724 2.73665 23.8857 6.38377C27.9909 9.95868 30.0435 15.7905 30.0435 23.8791V74.6317H26.6945ZM84.7618 0.913086H113.823V74.6317H84.7618V0.913086ZM39.3882 82.2619H44.2498C57.5016 82.2619 65.4061 86.7575 67.9627 95.7491C68.827 98.7102 69.2592 102.104 69.2592 105.932V155.981H39.3882V82.2619ZM0.172607 82.2619H29.2333V155.981H0.172607V82.2619ZM84.7618 82.2619H113.823V155.981H84.7618V82.2619Z" fill="#E8CA9B"/>
</svg>
