<svg width="268" height="84" viewBox="0 0 268 84" fill="none" xmlns="http://www.w3.org/2000/svg">
<path d="M44.4868 0.990925H49.9485C64.8369 0.990925 73.7174 6.02789 76.5899 16.1018C77.5608 19.4194 78.0463 23.2224 78.0463 27.5109V83.5851H44.4868V0.990925ZM0.428453 0.990925H33.0777V83.5851H0.428453V0.990925ZM137.094 0.990925H170.775V23.9304H164.464C153.5 23.9304 146.015 22.2109 142.01 18.772C138.733 15.94 137.094 11.3683 137.094 5.05691V0.990925ZM93.9462 0.990925H126.595V34.2471H150.931V50.0862H126.595V83.4637H93.9462V0.990925ZM137.033 77.6985C137.033 69.3238 141.888 63.6395 151.598 60.6456C155.32 59.5128 160.115 58.9464 165.981 58.9464H170.775V83.5851H137.033V77.6985ZM230.369 0.990925H235.103C250.112 0.990925 260.025 7.68666 264.839 21.0781C266.781 26.5803 267.752 32.912 267.752 40.073C267.752 52.1293 265.426 62.0616 260.773 69.87C255.271 79.0134 246.714 83.5851 235.103 83.5851H230.369V0.990925ZM215.744 83.5851C200.815 83.5851 190.923 76.0195 186.068 60.8884C184.086 54.7388 183.094 47.8003 183.094 40.073C183.094 24.335 187.464 13.2293 196.203 6.75613C201.341 2.91266 207.854 0.990925 215.744 0.990925H220.477V83.5851H215.744Z" fill="#E8CA9B"/>
</svg>
