<svg width="143" height="70" viewBox="0 0 143 70" fill="none" xmlns="http://www.w3.org/2000/svg">
<path d="M0.0953838 32.1762V24.7605H0.592527C1.31062 27.1634 2.27729 28.8482 3.49253 29.8148C4.70776 30.7815 6.22681 31.2648 8.04967 31.2648C10.8668 31.2648 12.2754 30.3672 12.2754 28.572C12.2754 27.7986 11.9301 27.2186 11.2397 26.832C10.1625 26.2243 8.78157 25.7548 7.09681 25.4234C5.21872 24.9262 3.64443 24.2634 2.37396 23.4348C0.854908 22.4405 0.0953838 20.8662 0.0953838 18.712C0.0953838 16.5577 0.758241 14.8453 2.08396 13.5748C3.40967 12.2767 5.17729 11.6277 7.38681 11.6277C8.74015 11.6277 10.1349 11.9453 11.5711 12.5805C12.0959 12.8015 12.4963 12.912 12.7725 12.912C13.0487 12.912 13.2835 12.8153 13.4768 12.622C13.6701 12.4286 13.9049 12.0696 14.1811 11.5448H14.6368V17.8834H14.1397C12.7311 14.2929 10.5492 12.4977 7.59396 12.4977C6.29586 12.4977 5.32919 12.7324 4.69396 13.202C4.05872 13.6439 3.7411 14.2101 3.7411 14.9005C3.7411 15.3148 3.83776 15.6462 4.0311 15.8948C4.22443 16.1158 4.37634 16.2815 4.48681 16.392C4.59729 16.5024 4.77681 16.6267 5.02538 16.7648C5.27396 16.8753 5.4811 16.972 5.64681 17.0548C5.81253 17.1101 6.0611 17.1929 6.39253 17.3034C6.75157 17.4139 7.01396 17.4829 7.17967 17.5105C9.05776 17.9801 10.4111 18.3943 11.2397 18.7534C12.0682 19.0848 12.8554 19.4991 13.6011 19.9962C15.1201 21.0458 15.8797 22.7443 15.8797 25.092C15.8797 27.412 15.1892 29.1796 13.8082 30.3948C12.4273 31.5824 10.5354 32.1762 8.13253 32.1762C6.42015 32.1762 4.763 31.7758 3.1611 30.9748C2.82967 30.7539 2.56729 30.6434 2.37396 30.6434C1.76634 30.6434 1.17253 31.1543 0.592527 32.1762H0.0953838ZM23.1957 9.18339C21.7319 9.18339 20.6824 8.81053 20.0471 8.06482C19.4395 7.31911 19.1357 6.39387 19.1357 5.2891C19.1357 4.18434 19.4671 3.27292 20.13 2.55482C20.8205 1.83673 21.8562 1.47768 23.2371 1.47768C24.6181 1.47768 25.6676 1.80911 26.3857 2.47196C27.1038 3.1072 27.4628 4.03244 27.4628 5.24768C27.4628 6.4353 27.1176 7.38815 26.4271 8.10625C25.7366 8.82434 24.6595 9.18339 23.1957 9.18339ZM16.94 12.042H27.09V31.0162H29.41V31.762H17.1057V31.0162H19.3843V12.7877H16.94V12.042ZM30.2544 12.042H40.2387V15.8534C41.1501 13.0362 43.1525 11.6277 46.2458 11.6277C49.3668 11.6277 51.2587 13.1191 51.9216 16.102C52.8882 13.1191 54.9182 11.6277 58.0116 11.6277C62.0716 11.6277 64.1016 13.9339 64.1016 18.5462V31.0162H66.4216V31.762H54.9458V31.0162H56.3958V17.552C56.3958 15.4529 56.2163 14.2239 55.8573 13.8648C55.6916 13.6991 55.4706 13.6162 55.1944 13.6162C54.3935 13.6162 53.6892 14.1548 53.0816 15.232C52.4739 16.3091 52.1701 17.6762 52.1701 19.3334V31.0162H53.6616V31.762H43.0144V31.0162H44.4644V17.552C44.4644 15.4529 44.2849 14.2239 43.9258 13.8648C43.7601 13.6991 43.5392 13.6162 43.263 13.6162C42.4896 13.6162 41.7854 14.2101 41.1501 15.3977C40.5425 16.5577 40.2387 17.9524 40.2387 19.582V31.0162H41.7301V31.762H30.2544V31.0162H32.533V12.7877H30.2544V12.042ZM82.1518 20.6177C82.1518 17.7729 82.0137 15.8672 81.7375 14.9005C81.4613 13.9062 80.9227 13.4091 80.1218 13.4091C79.3208 13.4091 78.6027 13.9339 77.9675 14.9834C77.3323 16.0053 77.0146 17.3862 77.0146 19.1262V26.7077C77.0146 27.8953 77.2494 28.9034 77.7189 29.732C78.1885 30.5605 78.8789 30.9748 79.7904 30.9748C80.7018 30.9748 81.3232 30.3672 81.6546 29.152C81.9861 27.9367 82.1518 25.8101 82.1518 22.772V20.6177ZM76.9318 12.042V15.3148C78.0089 12.8567 79.9146 11.6277 82.6489 11.6277C85.0242 11.6277 86.8608 12.4839 88.1589 14.1962C89.4846 15.9086 90.1475 18.5048 90.1475 21.9848C90.1475 25.4648 89.4294 28.0334 87.9932 29.6905C86.5846 31.3477 84.458 32.1762 81.6132 32.1762C80.2875 32.1762 79.2932 32.0105 78.6304 31.6791C77.9675 31.3477 77.4289 30.8367 77.0146 30.1462V40.8762H82.3589V41.622H67.0304V40.8762H69.3089V12.7877H67.1132V12.042H76.9318ZM91.2201 0.690533H101.37V31.0162H103.69V31.762H91.3858V31.0162H93.6644V1.43625H91.2201V0.690533ZM115.39 32.1762C111.827 32.1762 109.148 31.2648 107.353 29.442C105.585 27.5915 104.701 25.0367 104.701 21.7777C104.701 18.491 105.696 15.9777 107.684 14.2377C109.7 12.4977 112.255 11.6277 115.348 11.6277C121.618 11.6277 124.628 14.7762 124.38 21.0734H112.697V22.6891C112.697 25.3958 113.042 27.4396 113.733 28.8205C114.423 30.2015 115.625 30.892 117.337 30.892C120.541 30.892 122.64 29.1796 123.634 25.7548L124.38 25.8791C123.855 27.8677 122.902 29.4143 121.521 30.5191C120.168 31.6239 118.124 32.1762 115.39 32.1762ZM112.738 20.2448H117.006V18.2148C117.006 15.9777 116.867 14.4586 116.591 13.6577C116.343 12.8291 115.818 12.4148 115.017 12.4148C114.244 12.4148 113.664 12.8567 113.277 13.7405C112.918 14.5967 112.738 16.0882 112.738 18.2148V20.2448ZM126.404 32.1762V24.7605H126.901C127.619 27.1634 128.586 28.8482 129.801 29.8148C131.016 30.7815 132.535 31.2648 134.358 31.2648C137.175 31.2648 138.584 30.3672 138.584 28.572C138.584 27.7986 138.239 27.2186 137.548 26.832C136.471 26.2243 135.09 25.7548 133.405 25.4234C131.527 24.9262 129.953 24.2634 128.683 23.4348C127.163 22.4405 126.404 20.8662 126.404 18.712C126.404 16.5577 127.067 14.8453 128.393 13.5748C129.718 12.2767 131.486 11.6277 133.695 11.6277C135.049 11.6277 136.443 11.9453 137.88 12.5805C138.404 12.8015 138.805 12.912 139.081 12.912C139.357 12.912 139.592 12.8153 139.785 12.622C139.979 12.4286 140.213 12.0696 140.49 11.5448H140.945V17.8834H140.448C139.04 14.2929 136.858 12.4977 133.903 12.4977C132.604 12.4977 131.638 12.7324 131.003 13.202C130.367 13.6439 130.05 14.2101 130.05 14.9005C130.05 15.3148 130.146 15.6462 130.34 15.8948C130.533 16.1158 130.685 16.2815 130.795 16.392C130.906 16.5024 131.085 16.6267 131.334 16.7648C131.583 16.8753 131.79 16.972 131.955 17.0548C132.121 17.1101 132.37 17.1929 132.701 17.3034C133.06 17.4139 133.323 17.4829 133.488 17.5105C135.366 17.9801 136.72 18.3943 137.548 18.7534C138.377 19.0848 139.164 19.4991 139.91 19.9962C141.429 21.0458 142.188 22.7443 142.188 25.092C142.188 27.412 141.498 29.1796 140.117 30.3948C138.736 31.5824 136.844 32.1762 134.441 32.1762C132.729 32.1762 131.072 31.7758 129.47 30.9748C129.138 30.7539 128.876 30.6434 128.683 30.6434C128.075 30.6434 127.481 31.1543 126.901 32.1762H126.404ZM22.2843 49.042H32.2686V52.8534C33.18 50.0362 35.1824 48.6277 38.2757 48.6277C41.3966 48.6277 43.2886 50.1191 43.9514 53.102C44.9181 50.1191 46.9481 48.6277 50.0414 48.6277C54.1014 48.6277 56.1314 50.9339 56.1314 55.5462V68.0162H58.4514V68.762H46.9757V68.0162H48.4257V54.552C48.4257 52.4529 48.2462 51.2239 47.8871 50.8648C47.7214 50.6991 47.5005 50.6162 47.2243 50.6162C46.4233 50.6162 45.719 51.1548 45.1114 52.232C44.5038 53.3091 44.2 54.6762 44.2 56.3334V68.0162H45.6914V68.762H35.0443V68.0162H36.4943V54.552C36.4943 52.4529 36.3147 51.2239 35.9557 50.8648C35.79 50.6991 35.569 50.6162 35.2928 50.6162C34.5195 50.6162 33.8152 51.2101 33.18 52.3977C32.5724 53.5577 32.2686 54.9524 32.2686 56.582V68.0162H33.76V68.762H22.2843V68.0162H24.5628V49.7877H22.2843V49.042ZM69.9559 69.1762C66.3931 69.1762 63.714 68.2648 61.9188 66.442C60.1512 64.5915 59.2674 62.0367 59.2674 58.7777C59.2674 55.491 60.2616 52.9777 62.2502 51.2377C64.2664 49.4977 66.8212 48.6277 69.9145 48.6277C76.184 48.6277 79.1945 51.7762 78.9459 58.0734H67.2631V59.6891C67.2631 62.3958 67.6083 64.4396 68.2988 65.8205C68.9893 67.2015 70.1907 67.892 71.9031 67.892C75.1069 67.892 77.2059 66.1796 78.2002 62.7548L78.9459 62.8791C78.4212 64.8677 77.4683 66.4143 76.0874 67.5191C74.734 68.6239 72.6902 69.1762 69.9559 69.1762ZM67.3045 57.2448H71.5716V55.2148C71.5716 52.9777 71.4335 51.4586 71.1574 50.6577C70.9088 49.8291 70.384 49.4148 69.5831 49.4148C68.8097 49.4148 68.2297 49.8567 67.8431 50.7405C67.484 51.5967 67.3045 53.0882 67.3045 55.2148V57.2448ZM80.5047 49.042H90.489V52.8534C90.9309 51.5829 91.6075 50.561 92.519 49.7877C93.4304 49.0143 94.8113 48.6277 96.6618 48.6277C100.943 48.6277 103.083 50.9339 103.083 55.5462V68.0162H105.403V68.762H93.679V68.0162H95.3775V54.552C95.3775 52.8948 95.2671 51.8315 95.0461 51.362C94.8252 50.8648 94.4247 50.6162 93.8447 50.6162C92.9609 50.6162 92.1737 51.1962 91.4833 52.3562C90.8204 53.5162 90.489 54.9248 90.489 56.582V68.0162H92.2704V68.762H80.5047V68.0162H82.7833V49.7877H80.5047V49.042ZM107.82 62.8377V49.7877H105.541V49.042H107.82V43.6977L115.525 41.792V49.042H120.911V49.7877H115.525V63.7491C115.525 65.0472 115.65 66.0001 115.898 66.6077C116.174 67.2153 116.727 67.5191 117.555 67.5191C118.384 67.5191 119.102 67.1048 119.71 66.2762C120.345 65.4477 120.759 64.3153 120.953 62.8791L121.657 62.962C121.436 64.8677 120.828 66.3867 119.834 67.5191C118.84 68.6239 117.196 69.1762 114.904 69.1762C112.612 69.1762 110.858 68.7205 109.643 67.8091C108.427 66.8977 107.82 65.2405 107.82 62.8377ZM132.948 69.1762C129.386 69.1762 126.706 68.2648 124.911 66.442C123.144 64.5915 122.26 62.0367 122.26 58.7777C122.26 55.491 123.254 52.9777 125.243 51.2377C127.259 49.4977 129.814 48.6277 132.907 48.6277C139.176 48.6277 142.187 51.7762 141.938 58.0734H130.256V59.6891C130.256 62.3958 130.601 64.4396 131.291 65.8205C131.982 67.2015 133.183 67.892 134.896 67.892C138.099 67.892 140.198 66.1796 141.193 62.7548L141.938 62.8791C141.414 64.8677 140.461 66.4143 139.08 67.5191C137.726 68.6239 135.683 69.1762 132.948 69.1762ZM130.297 57.2448H134.564V55.2148C134.564 52.9777 134.426 51.4586 134.15 50.6577C133.901 49.8291 133.376 49.4148 132.576 49.4148C131.802 49.4148 131.222 49.8567 130.836 50.7405C130.476 51.5967 130.297 53.0882 130.297 55.2148V57.2448Z" fill="#E8CA9B"/>
</svg>
