<svg width="123" height="33" viewBox="0 0 123 33" fill="none" xmlns="http://www.w3.org/2000/svg">
<path d="M32.5618 0.0526733C31.1977 0.0526733 29.8362 0.0526733 28.4721 0.0526733C27.4485 0.05514 27.3523 0.156271 27.3523 1.19225C27.3523 6.197 27.3523 11.2042 27.3523 16.209C27.3523 21.3075 27.3523 26.4059 27.3523 31.5094C27.3523 32.3554 27.4978 32.496 28.3315 32.5009C29.6684 32.5083 31.0078 32.5009 32.3496 32.5009C33.6101 32.5009 33.726 32.3899 33.726 31.1468C33.726 22.5679 33.726 13.989 33.726 5.41262C33.726 4.00172 33.7285 2.59328 33.726 1.18238C33.7236 0.22287 33.546 0.05514 32.5618 0.0526733Z" fill="#E8CA9B"/>
<path d="M5.7694 0.0550912C4.52376 0.0476914 3.27813 0.0427568 2.03002 0.0575565C0.722717 0.0772893 0 0.822203 0 2.13444C0 6.9764 0 11.8208 0 16.6628C0 21.5787 0 26.4873 0 31.4032C0 32.2641 0.115931 32.38 0.979244 32.38C2.24708 32.3899 3.51739 32.3899 4.78522 32.38C6.11719 32.3702 6.78565 31.7066 6.78565 30.3821C6.78565 20.6266 6.78565 10.8662 6.78565 1.11326C6.78811 0.257351 6.60805 0.062491 5.7694 0.0550912Z" fill="#E8CA9B"/>
<path d="M23.9853 31.6425C23.6227 28.0314 22.308 24.8273 19.7798 22.1806C17.0566 19.3341 13.707 17.7678 10.0539 17.4052C8.87488 17.383 8.86501 17.383 8.89708 18.2735C8.90941 18.6015 8.97355 18.9247 9.02288 19.2503C9.67653 23.5792 11.7929 27.0275 15.3152 29.6051C17.6239 31.3021 20.2361 32.1827 23.0801 32.4491C23.9261 32.5305 24.0692 32.4713 23.9853 31.6425Z" fill="#E8CA9B"/>
<path d="M23.0997 0.134036C22.7766 0.185835 22.4411 0.1661 22.1205 0.215432C18.4156 0.804952 15.2707 2.44525 12.7695 5.25472C10.4781 7.82493 9.20528 10.8564 8.90436 14.2801C8.82789 15.173 8.87723 15.1754 9.817 15.2963C11.107 14.9781 12.4489 14.7832 13.6822 14.3146C19.8413 11.9762 23.2107 7.43767 23.9877 0.925816C24.0863 0.0995014 23.9482 0.00577231 23.0997 0.134036Z" fill="#E8CA9B"/>
<path d="M56.1475 15.4221C56.0538 11.8283 54.009 9.42333 50.5508 8.57235C46.7152 7.62023 42.9142 8.17769 39.1329 8.98427C38.6839 9.078 38.4989 9.40113 38.5088 9.87225C38.5285 10.7134 38.5137 11.5619 38.5137 12.4079C38.5137 13.6141 38.6716 13.6733 39.8654 13.6018C42.3 13.4636 44.7395 13.36 47.1765 13.36C48.6318 13.36 49.5148 14.1814 49.7566 15.4986C49.833 15.908 49.8034 16.3422 49.8034 16.764C49.8083 18.3993 49.8059 18.4141 48.1927 18.3944C45.9382 18.3722 43.6912 18.4462 41.5082 19.1072C39.2537 19.7831 37.6332 21.1175 37.1448 23.52C36.8315 25.0715 36.8636 26.6378 37.241 28.1967C37.7639 30.355 39.0712 31.8251 41.2073 32.4615C43.5802 33.1595 45.9308 33.0584 48.1878 31.9657C48.834 31.6524 49.4482 31.2676 50.1709 30.8656C50.2005 31.09 50.2227 31.2035 50.2277 31.3194C50.2819 32.3801 50.4151 32.5133 51.4906 32.5133C52.7584 32.5157 54.0262 32.5182 55.2966 32.5133C56.0341 32.5083 56.2955 32.274 56.2931 31.5562C56.261 26.1765 56.2881 20.7944 56.1475 15.4221ZM49.1794 27.5381C47.7981 28.0734 46.402 28.362 44.9195 28.1054C43.997 27.9476 43.3212 27.4 43.2422 26.4627C43.1732 25.6068 43.2225 24.7237 43.3902 23.8875C43.5703 22.9946 44.2264 22.341 45.1218 22.2275C46.582 22.0474 48.0595 22.008 49.5296 21.9562C49.6603 21.9512 49.9095 22.2694 49.9218 22.452C49.9687 23.1771 49.9415 23.9073 49.9415 24.6349C49.9415 25.2022 49.8971 25.7695 49.9539 26.3295C50.0279 26.9807 49.7738 27.3112 49.1794 27.5381Z" fill="#E8CA9B"/>
<path d="M119.857 6.71985V6.90484H120.375V8.41688H120.597V6.90484H121.115V6.71985H119.857Z" fill="#E8CA9B"/>
<path d="M122.894 6.71985H122.6L122.297 7.54123C122.225 7.75583 122.161 7.94082 122.119 8.11349H122.117C122.065 7.93589 122.013 7.74843 121.944 7.54123L121.656 6.71985H121.377L121.261 8.41688H121.468L121.518 7.68676C121.532 7.43023 121.545 7.14657 121.55 6.93691H121.555C121.606 7.1367 121.67 7.35623 121.749 7.5955L122.026 8.40701H122.191L122.489 7.58069C122.576 7.34637 122.642 7.13424 122.701 6.93691H122.706C122.706 7.1441 122.721 7.43517 122.738 7.6695L122.778 8.41688H123L122.894 6.71985Z" fill="#E8CA9B"/>
<path d="M96.4815 17.0254C96.4667 15.7427 96.3162 14.4453 96.0375 13.1849C95.4825 10.5826 93.9902 8.74989 91.2498 8.27137C88.2578 7.74105 85.4064 8.16531 82.8387 9.90673C82.5871 10.0745 82.3355 10.2274 81.9038 10.5012C81.8841 9.99553 81.8545 9.68227 81.8496 9.36408C81.8298 8.5353 81.6868 8.3799 80.853 8.37497C79.5285 8.36757 78.2162 8.3651 76.9015 8.37743C76.127 8.38237 75.8952 8.62409 75.8952 9.39614C75.8927 16.7294 75.8927 24.0601 75.8952 31.3934C75.8952 32.2542 76.127 32.491 76.9706 32.496C78.4284 32.5009 79.8861 32.4812 81.3439 32.5083C81.9951 32.5157 82.2886 32.2592 82.2763 31.5907C82.2516 30.1354 82.2689 28.6801 82.2689 27.2199C82.2689 23.3424 82.2615 19.4649 82.2837 15.5873C82.2837 15.2667 82.3675 14.7857 82.5821 14.6525C84.2002 13.656 85.9367 13.0443 87.8681 13.3649C88.9312 13.5401 89.6761 14.1641 89.8759 15.2617C90.0165 16.0215 90.1226 16.7935 90.1226 17.5631C90.1522 22.1732 90.1374 26.7784 90.1374 31.386C90.1374 32.3899 90.2533 32.5009 91.2819 32.5009C92.599 32.5083 93.9187 32.5083 95.2334 32.5009C96.3705 32.5009 96.5012 32.3751 96.5012 31.2627C96.5012 26.5218 96.5333 21.7761 96.4815 17.0254Z" fill="#E8CA9B"/>
<path d="M118.93 16.7516C118.928 16.0289 118.893 15.2963 118.782 14.5711C118.343 11.7592 116.836 9.75133 114.105 8.84115C112.961 8.45883 111.74 8.1949 110.539 8.11844C107.668 7.93837 104.831 8.28123 102.021 8.91515C101.405 9.05822 101.146 9.39367 101.148 9.99553C101.151 10.77 101.148 11.547 101.148 12.3215C101.148 13.5696 101.321 13.6658 102.535 13.6017C104.952 13.466 107.367 13.3575 109.781 13.3427C111.34 13.3378 112.213 14.1394 112.477 15.6811C112.596 16.3717 112.532 17.0895 112.569 17.7876C112.593 18.2513 112.374 18.4042 111.93 18.3894C110.919 18.3746 109.895 18.2883 108.898 18.4091C107.184 18.6114 105.445 18.8087 103.788 19.2725C101.59 19.8916 100.164 21.4283 99.804 23.7419C99.6585 24.7015 99.6831 25.698 99.73 26.6748C99.9174 30.6411 102.944 33.2458 106.903 32.9251C108.903 32.7697 110.788 32.2937 112.426 31.0727C112.537 30.9938 112.677 30.9494 112.83 30.8803C112.902 30.9889 112.946 31.016 112.951 31.0604C112.976 31.1788 112.988 31.2947 112.993 31.4156C113.047 32.4392 113.114 32.5009 114.165 32.5009C115.388 32.5083 116.607 32.5083 117.83 32.5009C118.814 32.5009 118.935 32.3899 118.935 31.4205C118.937 26.5317 118.942 21.6404 118.93 16.7516ZM112.717 26.5539C112.734 27.0028 112.542 27.2396 112.149 27.4147C110.706 28.0536 109.224 28.3816 107.638 28.1227C106.496 27.9278 105.827 27.1533 105.847 25.7177C105.884 23.2782 106.422 22.1757 109.389 21.9512C110.275 21.8821 111.175 21.9537 112.065 21.9339C112.566 21.9117 112.727 22.1461 112.717 22.6098C112.694 23.2906 112.707 23.9763 112.707 24.6521C112.712 25.2836 112.687 25.915 112.717 26.5539Z" fill="#E8CA9B"/>
<path d="M73.2386 8.96201C73.241 8.33302 72.9598 8.06416 72.3358 8.08883C70.5006 8.16776 68.8431 8.74495 67.3582 9.81792C67.1559 9.96592 66.9536 10.1016 66.6502 10.3186C66.6256 9.98072 66.5984 9.78093 66.5984 9.57866C66.5787 8.56735 66.4011 8.37989 65.412 8.37989C64.1368 8.37496 62.8739 8.37742 61.6036 8.37742C60.4418 8.37989 60.2494 8.56735 60.2494 9.72419C60.2494 12.9653 60.2494 16.2114 60.2494 19.4525C60.2494 23.3843 60.2469 27.3087 60.2494 31.2281C60.2494 32.269 60.4788 32.5009 61.4679 32.5009C62.8048 32.5083 64.1491 32.5083 65.4885 32.5009C66.5688 32.5009 66.7415 32.3381 66.7415 31.2232C66.744 26.0112 66.7489 20.7919 66.7316 15.5676C66.7316 15.0521 66.8821 14.7585 67.3557 14.5341C68.9245 13.7966 70.5327 13.244 72.2963 13.3156C72.9426 13.3427 73.2558 13.0985 73.241 12.4153C73.2139 11.2609 73.2188 10.1139 73.2386 8.96201Z" fill="#E8CA9B"/>
</svg>
