<svg width="694" height="694" viewBox="0 0 694 694" fill="none" xmlns="http://www.w3.org/2000/svg">
<circle cx="347" cy="347" r="342" fill="#0A4435" stroke="#00BA89" stroke-width="10"/>
<path d="M160.386 295.127C164.504 305.366 174.201 313.253 185.588 317.668C197.035 322.106 209.093 322.611 217.172 319.361C224.357 316.471 227.859 310.153 228.344 300.778C228.837 291.244 226.058 279.448 221.399 267.866C212.715 246.274 191.389 237.927 175.052 244.498C159.282 250.841 151.438 272.881 160.386 295.127Z" fill="#E8CA9B" stroke="#0E1110" stroke-width="10"/>
<path d="M192.038 301C208.438 294.2 217.538 303.833 220.038 309.5C219.538 294.333 211.038 265.4 181.038 271" stroke="#0E1110" stroke-width="10" stroke-linecap="round" stroke-linejoin="round"/>
<path d="M534.152 295.127C530.034 305.366 520.337 313.253 508.95 317.668C497.503 322.106 485.445 322.611 477.366 319.361C470.18 316.471 466.679 310.153 466.194 300.778C465.701 291.244 468.48 279.448 473.139 267.866C481.823 246.274 503.149 237.927 519.486 244.498C535.256 250.841 543.1 272.881 534.152 295.127Z" fill="#E8CA9B" stroke="#0E1110" stroke-width="10"/>
<path d="M502.5 301C486.1 294.2 477 303.833 474.5 309.5C475 294.333 483.5 265.4 513.5 271" stroke="#0E1110" stroke-width="10" stroke-linecap="round" stroke-linejoin="round"/>
<path d="M86.5 557L303 477.5H394L602 557C398 777.4 173.333 648.833 86.5 557Z" fill="#0E1110"/>
<path d="M90 555L305 476.5M395 476.5L603.5 558.5" stroke="black" stroke-width="10"/>
<path d="M305.5 494.5V408.5H393.5V494.5C358.7 526.1 320.333 507.667 305.5 494.5Z" fill="#E8CA9B" stroke="black" stroke-width="10"/>
<path d="M219.496 285.803L219.49 285.649L219.474 285.495C214.563 237.119 223.918 191.072 245.904 157.29C267.781 123.675 302.253 102 348.5 102C384.969 102 418.369 113.274 441.789 141.271C465.292 169.367 479.468 215.161 475.508 285.72C471.522 356.736 458.707 398.315 437.882 422.757C417.34 446.869 388.168 455.243 348.506 457.492C310.444 455.246 280.026 446.169 258.244 421.561C236.261 396.726 222.23 355.141 219.496 285.803Z" fill="#E8CA9B" stroke="#0E1110" stroke-width="10"/>
<path d="M327.5 350.265C337.143 352.875 361.082 354.176 379.69 338.5" stroke="#0E1110" stroke-width="10" stroke-linecap="round" stroke-linejoin="round"/>
<path d="M409.5 337.979C429.9 394.362 461.333 314.486 474.5 267.5C474.5 442.965 388.167 465.781 345 455.256V399.437C390.6 417.48 407 365.983 409.5 337.979Z" fill="#7B6E55"/>
<path d="M281 337.979C260.6 394.362 229.167 314.486 216 267.5C216 442.965 302.333 465.781 345.5 455.256V399.437C299.9 417.48 283.5 365.983 281 337.979Z" fill="#7B6E55"/>
<path d="M346 132C316 108.4 276.167 126.5 260 138.5C343.2 71.7 412.667 110.667 437 138.5C398.6 109.3 360.333 122 346 132Z" fill="#7B6E55" fill-opacity="0.74"/>
<path d="M219.496 285.803L219.49 285.649L219.474 285.495C214.563 237.119 223.918 191.072 245.904 157.29C267.781 123.675 302.253 102 348.5 102C384.969 102 418.369 113.274 441.789 141.271C465.292 169.367 479.468 215.161 475.508 285.72C471.522 356.736 458.707 398.315 437.882 422.757C417.34 446.869 388.168 455.243 348.506 457.492C310.444 455.246 280.026 446.169 258.244 421.561C236.261 396.726 222.23 355.141 219.496 285.803Z" stroke="#0E1110" stroke-width="10"/>
<path d="M358.179 374.5H328.929C324.094 374.5 321.245 379.927 323.991 383.907L338.738 405.282C341.135 408.755 346.273 408.735 348.642 405.243L363.144 383.869C365.847 379.885 362.993 374.5 358.179 374.5Z" fill="#0E1110" stroke="#0E1110" stroke-width="10"/>
<path d="M281.666 343.353C280.628 343.762 279.825 342.521 280.692 341.817C299.907 326.207 344.11 303.687 351.687 312.47C359.401 321.411 310.373 332.038 281.666 343.353Z" fill="#0E1110" stroke="#0E1110" stroke-width="10"/>
<path d="M407.334 343.353C408.372 343.762 409.175 342.521 408.308 341.817C389.093 326.207 344.89 303.687 337.313 312.47C329.599 321.411 378.627 332.038 407.334 343.353Z" fill="#0E1110" stroke="#0E1110" stroke-width="10"/>
<circle cx="284.5" cy="257.5" r="10" fill="#0E1110"/>
<ellipse cx="409" cy="257.5" rx="10.5" ry="10" fill="#0E1110"/>
<path d="M239.66 211.235C239.681 211.126 239.719 211.028 239.775 210.933C246.082 200.386 264.008 178.561 286.002 174.527C307.547 170.575 323.84 175.203 329.755 178.209C330.031 178.349 330.218 178.609 330.265 178.915C331.305 185.655 329.5 197.415 314.219 194.042C294.655 189.723 257.065 201.089 247.029 212.691C239.099 221.859 238.799 215.636 239.66 211.235Z" fill="#0E1110"/>
<path d="M455.676 227.235C455.655 227.126 455.617 227.028 455.561 226.933C449.254 216.386 431.328 194.561 409.334 190.527C387.789 186.575 371.496 191.203 365.581 194.209C365.305 194.349 365.118 194.609 365.071 194.915C364.031 201.655 365.836 213.415 381.117 210.042C400.681 205.723 438.271 217.089 448.307 228.691C456.237 237.859 456.537 231.636 455.676 227.235Z" fill="#0E1110"/>
<path d="M356.933 228.5H449.999C451.91 244.178 453.056 273.813 440 281C426.944 288.187 397.261 287.512 380.5 284.517C363.739 281.523 356.933 228.5 356.933 228.5Z" fill="#B6D3CB" fill-opacity="0.6"/>
<path d="M335.525 228.5H242.459C240.548 244.178 239.402 273.813 252.458 281C265.514 288.187 295.197 287.512 311.958 284.517C328.719 281.523 335.525 228.5 335.525 228.5Z" fill="#B6D3CB" fill-opacity="0.6"/>
<path d="M449.999 228.5L454.962 227.895C454.656 225.386 452.526 223.5 449.999 223.5V228.5ZM356.933 228.5V223.5C355.496 223.5 354.128 224.118 353.179 225.197C352.23 226.276 351.79 227.711 351.973 229.137L356.933 228.5ZM242.459 228.5V223.5C239.932 223.5 237.802 225.386 237.496 227.895L242.459 228.5ZM335.525 228.5L340.484 229.137C340.667 227.711 340.228 226.276 339.279 225.197C338.33 224.118 336.962 223.5 335.525 223.5V228.5ZM252.458 281L254.869 276.62L252.458 281ZM449.999 223.5H356.933V233.5H449.999V223.5ZM356.933 228.5C351.973 229.137 351.974 229.137 351.974 229.139C351.974 229.139 351.974 229.141 351.974 229.142C351.974 229.144 351.975 229.148 351.975 229.152C351.977 229.161 351.978 229.172 351.98 229.187C351.984 229.216 351.989 229.259 351.997 229.313C352.011 229.422 352.032 229.579 352.061 229.783C352.117 230.189 352.201 230.779 352.313 231.527C352.538 233.023 352.877 235.153 353.337 237.714C354.253 242.825 355.66 249.711 357.615 256.727C359.554 263.691 362.102 271.034 365.376 276.929C368.481 282.519 373.038 288.263 379.621 289.439L381.38 279.595C379.582 279.274 377.003 277.267 374.118 272.073C371.402 267.184 369.105 260.71 367.248 254.044C365.405 247.43 364.063 240.873 363.18 235.949C362.739 233.493 362.415 231.457 362.202 230.041C362.096 229.333 362.017 228.781 361.966 228.409C361.94 228.224 361.921 228.083 361.909 227.991C361.903 227.945 361.898 227.911 361.895 227.89C361.894 227.879 361.893 227.871 361.893 227.867C361.892 227.865 361.892 227.863 361.892 227.863C361.892 227.862 361.892 227.863 361.892 227.862C361.892 227.863 361.892 227.863 356.933 228.5ZM379.621 289.439C388.363 291.001 400.323 291.94 411.799 291.574C423.05 291.216 434.772 289.585 442.411 285.38L437.589 276.62C432.172 279.602 422.525 281.227 411.48 281.579C400.66 281.924 389.398 281.028 381.38 279.595L379.621 289.439ZM442.411 285.38C447.009 282.849 449.996 278.544 451.947 273.91C453.904 269.263 455.001 263.868 455.583 258.47C456.748 247.666 455.94 235.913 454.962 227.895L445.036 229.105C445.969 236.765 446.69 247.669 445.641 257.398C445.116 262.266 444.171 266.608 442.731 270.029C441.285 273.463 439.519 275.557 437.589 276.62L442.411 285.38ZM242.459 233.5H335.525V223.5H242.459V233.5ZM335.525 228.5C330.566 227.863 330.566 227.863 330.566 227.862C330.566 227.863 330.566 227.862 330.566 227.863C330.566 227.863 330.566 227.865 330.565 227.867C330.565 227.871 330.564 227.879 330.562 227.89C330.56 227.911 330.555 227.945 330.549 227.991C330.537 228.083 330.518 228.224 330.492 228.409C330.441 228.781 330.362 229.333 330.256 230.041C330.043 231.457 329.719 233.493 329.278 235.949C328.395 240.873 327.053 247.43 325.21 254.044C323.353 260.71 321.056 267.184 318.34 272.073C315.455 277.267 312.876 279.274 311.079 279.595L312.837 289.439C319.421 288.263 323.977 282.519 327.082 276.929C330.356 271.034 332.904 263.691 334.843 256.727C336.798 249.711 338.204 242.825 339.121 237.714C339.581 235.153 339.92 233.023 340.144 231.527C340.257 230.779 340.341 230.189 340.397 229.783C340.425 229.579 340.447 229.422 340.461 229.313C340.469 229.259 340.474 229.216 340.478 229.187C340.48 229.172 340.481 229.161 340.482 229.152C340.483 229.148 340.483 229.144 340.484 229.142C340.484 229.141 340.484 229.139 340.484 229.139C340.484 229.137 340.484 229.137 335.525 228.5ZM311.079 279.595C303.06 281.028 291.798 281.924 280.978 281.579C269.933 281.227 260.286 279.602 254.869 276.62L250.047 285.38C257.686 289.585 269.408 291.216 280.659 291.574C292.135 291.94 304.095 291.001 312.837 289.439L311.079 279.595ZM254.869 276.62C252.939 275.557 251.173 273.463 249.727 270.029C248.287 266.608 247.342 262.266 246.817 257.398C245.768 247.669 246.489 236.765 247.422 229.105L237.496 227.895C236.518 235.913 235.71 247.666 236.875 258.47C237.457 263.868 238.554 269.263 240.511 273.91C242.462 278.544 245.449 282.849 250.047 285.38L254.869 276.62Z" fill="#0E1110"/>
<path d="M333.674 247.882H357.051" stroke="#0E1110" stroke-width="10"/>
<path d="M208.5 238.557H238.5" stroke="#0E1110" stroke-width="10" stroke-linecap="round" stroke-linejoin="round"/>
<path d="M455.504 238.557H485.504" stroke="#0E1110" stroke-width="10" stroke-linecap="round" stroke-linejoin="round"/>
<circle cx="347" cy="347" r="332" stroke="black" stroke-width="10"/>
</svg>
