<svg width="843" height="899" viewBox="0 0 843 899" fill="none" xmlns="http://www.w3.org/2000/svg">
<g filter="url(#filter0_ddif)">
<circle cx="421.491" cy="449.491" r="392.491" fill="#1E2523"/>
</g>
<g filter="url(#filter1_d)">
<path d="M204.145 389.943C208.941 401.868 220.235 411.052 233.497 416.195C246.829 421.364 260.872 421.952 270.282 418.167C278.65 414.801 282.728 407.443 283.293 396.524C283.867 385.42 280.63 371.682 275.205 358.192C265.09 333.045 240.253 323.323 221.226 330.976C202.859 338.364 193.724 364.034 204.145 389.943Z" fill="#E5B588" stroke="#0E1110" stroke-width="11.6466"/>
<path d="M241.009 396.782C260.11 388.863 270.708 400.082 273.62 406.682C273.038 389.018 263.138 355.32 228.198 361.842" stroke="#0E1110" stroke-width="11.6466" stroke-linecap="round" stroke-linejoin="round"/>
<path d="M639.458 389.943C634.662 401.868 623.367 411.052 610.105 416.195C596.773 421.364 582.73 421.952 573.32 418.167C564.952 414.801 560.874 407.443 560.309 396.524C559.735 385.42 562.972 371.682 568.398 358.192C578.512 333.045 603.349 323.323 622.376 330.976C640.744 338.364 649.878 364.034 639.458 389.943Z" fill="#E5B588" stroke="#0E1110" stroke-width="11.6466"/>
<path d="M602.595 396.782C583.495 388.863 572.896 400.082 569.985 406.682C570.567 389.018 580.467 355.32 615.406 361.842" stroke="#0E1110" stroke-width="11.6466" stroke-linecap="round" stroke-linejoin="round"/>
</g>
<path d="M118.1 694.936L370.249 602.345H476.233L718.483 694.936C480.892 951.627 219.231 801.891 118.1 694.936Z" fill="#0A100E"/>
<path d="M122.176 692.606L372.578 601.18M477.398 601.18L720.23 696.683" stroke="black" stroke-width="11.6466"/>
<path d="M373.159 622.144V521.983H475.649V622.144C435.119 658.947 390.435 637.479 373.159 622.144Z" fill="#E5B588" stroke="black" stroke-width="11.6466"/>
<g filter="url(#filter2_d)">
<path d="M576.975 379.312C567.66 545.277 516.995 579.634 423.239 584.875C332.978 579.634 273.58 541.783 267.175 379.312C255.528 264.593 311.318 159.191 423.239 159.191C510.589 159.191 586.289 213.348 576.975 379.312Z" fill="#E6B588"/>
<path d="M272.993 379.083L272.986 378.903L272.968 378.724C267.248 322.382 278.144 268.753 303.75 229.408C329.229 190.258 369.377 165.014 423.239 165.014C465.714 165.014 504.614 178.145 531.89 210.751C559.263 243.474 575.773 296.809 571.161 378.986C566.519 461.695 551.593 510.121 527.34 538.588C503.415 566.67 469.439 576.423 423.246 579.042C378.917 576.426 343.49 565.854 318.122 537.195C292.519 508.271 276.177 459.838 272.993 379.083Z" stroke="#0E1110" stroke-width="11.6466"/>
</g>
<path d="M398.781 454.159C410.012 457.199 437.893 458.714 459.565 440.457" stroke="#0E1110" stroke-width="11.6466" stroke-linecap="round" stroke-linejoin="round"/>
<path d="M494.283 439.85C518.042 505.518 554.652 412.489 569.986 357.766C569.986 562.123 469.437 588.696 419.163 576.438V511.428C472.271 532.441 491.372 472.465 494.283 439.85Z" fill="#7B6E55"/>
<path d="M344.626 439.85C320.867 505.518 284.258 412.489 268.923 357.766C268.923 562.123 369.472 588.696 419.747 576.438V511.428C366.638 532.441 347.538 472.465 344.626 439.85Z" fill="#7B6E55"/>
<path d="M420.328 199.954C385.389 172.468 338.996 193.548 320.167 207.524C417.067 129.725 497.973 175.108 526.313 207.524C481.59 173.516 437.022 188.307 420.328 199.954Z" fill="#7B6E55" fill-opacity="0.74"/>
<path d="M272.993 379.083L272.986 378.903L272.968 378.724C267.248 322.382 278.144 268.753 303.75 229.408C329.229 190.258 369.377 165.014 423.239 165.014C465.714 165.014 504.614 178.145 531.89 210.751C559.263 243.474 575.773 296.809 571.161 378.986C566.519 461.695 551.593 510.121 527.34 538.588C503.415 566.67 469.439 576.423 423.246 579.042C378.917 576.426 343.49 565.854 318.122 537.195C292.519 508.271 276.177 459.838 272.993 379.083Z" stroke="#0E1110" stroke-width="11.6466"/>
<path d="M434.511 482.384H400.446C394.814 482.384 391.496 488.705 394.694 493.341L411.87 518.235C414.661 522.28 420.645 522.257 423.404 518.19L440.294 493.296C443.442 488.656 440.118 482.384 434.511 482.384Z" fill="#0E1110" stroke="#0E1110" stroke-width="11.6466"/>
<path d="M345.4 446.108C344.19 446.585 343.256 445.14 344.265 444.32C366.644 426.14 418.125 399.911 426.951 410.141C435.935 420.554 378.833 432.93 345.4 446.108Z" fill="#0E1110" stroke="#0E1110" stroke-width="11.6466"/>
<path d="M491.762 446.108C492.971 446.585 493.906 445.14 492.897 444.32C470.518 426.14 419.036 399.911 410.211 410.141C401.227 420.554 458.328 432.93 491.762 446.108Z" fill="#0E1110" stroke="#0E1110" stroke-width="11.6466"/>
<circle cx="348.702" cy="346.119" r="11.6466" fill="#0E1110"/>
<ellipse cx="493.701" cy="346.119" rx="12.229" ry="11.6466" fill="#0E1110"/>
<path d="M296.478 292.236C296.502 292.109 296.546 291.995 296.612 291.884C303.958 279.6 324.835 254.182 350.45 249.483C375.543 244.881 394.519 250.271 401.408 253.772C401.729 253.935 401.947 254.238 402.002 254.594C403.213 262.444 401.111 276.14 383.314 272.211C360.529 267.182 316.749 280.419 305.06 293.932C295.824 304.609 295.475 297.362 296.478 292.236Z" fill="#0E1110"/>
<path d="M548.064 310.871C548.039 310.744 547.995 310.629 547.929 310.519C540.583 298.235 519.706 272.817 494.091 268.118C468.998 263.516 450.023 268.906 443.133 272.406C442.812 272.569 442.594 272.873 442.539 273.229C441.328 281.079 443.431 294.774 461.227 290.846C484.013 285.817 527.792 299.054 539.481 312.566C548.717 323.243 549.066 315.997 548.064 310.871Z" fill="#0E1110"/>
<path d="M433.059 312.344H541.45C543.676 330.603 545.01 365.118 529.805 373.489C514.599 381.859 480.028 381.073 460.508 377.585C440.987 374.098 433.059 312.344 433.059 312.344Z" fill="#B6D3CB" fill-opacity="0.6"/>
<path d="M408.127 312.344H299.736C297.51 330.603 296.176 365.118 311.382 373.489C326.587 381.859 361.158 381.073 380.679 377.585C400.2 374.097 408.127 312.344 408.127 312.344Z" fill="#B6D3CB" fill-opacity="0.6"/>
<path d="M541.45 312.344L547.231 311.639C546.875 308.717 544.394 306.521 541.45 306.521V312.344ZM433.059 312.344V306.521C431.386 306.521 429.793 307.241 428.687 308.497C427.582 309.754 427.07 311.425 427.284 313.085L433.059 312.344ZM460.508 377.585L461.532 371.853L461.532 371.853L460.508 377.585ZM529.805 373.489L532.613 378.59L532.613 378.59L529.805 373.489ZM299.736 312.344V306.521C296.793 306.521 294.312 308.717 293.956 311.639L299.736 312.344ZM408.127 312.344L413.903 313.085C414.116 311.425 413.604 309.754 412.499 308.497C411.393 307.241 409.801 306.521 408.127 306.521V312.344ZM380.679 377.585L379.655 371.853L379.655 371.853L380.679 377.585ZM311.382 373.489L314.19 368.387L314.19 368.387L311.382 373.489ZM541.45 306.521H433.059V318.167H541.45V306.521ZM433.059 312.344C427.284 313.085 427.284 313.086 427.284 313.088C427.284 313.089 427.284 313.09 427.284 313.092C427.285 313.095 427.285 313.099 427.286 313.104C427.287 313.113 427.289 313.127 427.291 313.144C427.296 313.178 427.302 313.228 427.311 313.291C427.328 313.418 427.352 313.601 427.385 313.838C427.451 314.312 427.549 314.999 427.68 315.87C427.941 317.612 428.336 320.092 428.871 323.076C429.939 329.028 431.577 337.048 433.854 345.219C436.113 353.33 439.079 361.882 442.893 368.748C446.509 375.258 451.816 381.948 459.483 383.318L461.532 371.853C459.439 371.479 456.434 369.141 453.074 363.092C449.911 357.398 447.236 349.858 445.073 342.094C442.927 334.391 441.364 326.754 440.335 321.019C439.822 318.159 439.445 315.788 439.197 314.138C439.073 313.314 438.981 312.671 438.921 312.239C438.891 312.022 438.869 311.859 438.855 311.751C438.848 311.698 438.843 311.658 438.839 311.633C438.838 311.621 438.837 311.612 438.836 311.607C438.836 311.604 438.835 311.603 438.835 311.602C438.835 311.601 438.835 311.602 438.835 311.601C438.835 311.602 438.835 311.602 433.059 312.344ZM459.483 383.318C469.665 385.137 483.594 386.23 496.96 385.804C510.064 385.387 523.716 383.488 532.613 378.59L526.997 368.387C520.688 371.86 509.452 373.754 496.589 374.164C483.987 374.565 470.871 373.521 461.532 371.853L459.483 383.318ZM532.613 378.59C537.968 375.642 541.447 370.628 543.719 365.231C545.998 359.819 547.276 353.536 547.954 347.249C549.311 334.665 548.369 320.978 547.231 311.639L535.67 313.049C536.757 321.969 537.596 334.669 536.375 346.001C535.763 351.671 534.663 356.727 532.986 360.711C531.301 364.711 529.245 367.15 526.997 368.387L532.613 378.59ZM299.736 318.167H408.127V306.521H299.736V318.167ZM408.127 312.344C402.351 311.602 402.351 311.602 402.351 311.601C402.351 311.602 402.351 311.601 402.351 311.602C402.351 311.603 402.351 311.604 402.35 311.607C402.35 311.612 402.349 311.621 402.347 311.633C402.344 311.658 402.339 311.698 402.331 311.751C402.317 311.859 402.295 312.022 402.265 312.239C402.205 312.671 402.114 313.314 401.99 314.138C401.742 315.788 401.365 318.159 400.851 321.019C399.823 326.754 398.259 334.391 396.113 342.094C393.951 349.858 391.275 357.398 388.112 363.092C384.752 369.141 381.748 371.479 379.655 371.853L381.703 383.318C389.37 381.948 394.677 375.258 398.294 368.748C402.107 361.882 405.074 353.33 407.333 345.219C409.609 337.048 411.247 329.028 412.315 323.076C412.85 320.092 413.245 317.612 413.507 315.87C413.638 314.999 413.736 314.312 413.801 313.838C413.834 313.601 413.859 313.418 413.876 313.291C413.884 313.228 413.891 313.178 413.895 313.144C413.897 313.127 413.899 313.113 413.901 313.104C413.901 313.099 413.902 313.095 413.902 313.092C413.902 313.09 413.902 313.089 413.903 313.088C413.903 313.086 413.903 313.085 408.127 312.344ZM379.655 371.853C370.316 373.521 357.199 374.565 344.598 374.163C331.735 373.754 320.498 371.86 314.19 368.387L308.573 378.59C317.47 383.488 331.123 385.387 344.227 385.804C357.592 386.23 371.522 385.137 381.703 383.318L379.655 371.853ZM314.19 368.387C311.942 367.15 309.885 364.711 308.201 360.711C306.523 356.727 305.423 351.671 304.812 346.001C303.591 334.669 304.429 321.969 305.517 313.049L293.956 311.639C292.817 320.978 291.876 334.665 293.232 347.249C293.91 353.536 295.188 359.819 297.467 365.231C299.74 370.628 303.219 375.642 308.573 378.59L314.19 368.387Z" fill="#0E1110"/>
<path d="M405.972 334.918H433.198" stroke="#0E1110" stroke-width="11.6466"/>
<path d="M260.186 324.057H295.126" stroke="#0E1110" stroke-width="11.6466" stroke-linecap="round" stroke-linejoin="round"/>
<path d="M547.863 324.057H582.803" stroke="#0E1110" stroke-width="11.6466" stroke-linecap="round" stroke-linejoin="round"/>
<defs>
<filter id="filter0_ddif" x="0.964911" y="0.929821" width="841.053" height="897.123" filterUnits="userSpaceOnUse" color-interpolation-filters="sRGB">
<feFlood flood-opacity="0" result="BackgroundImageFix"/>
<feColorMatrix in="SourceAlpha" type="matrix" values="0 0 0 0 0 0 0 0 0 0 0 0 0 0 0 0 0 0 127 0"/>
<feOffset dy="28.0351"/>
<feGaussianBlur stdDeviation="14.0175"/>
<feColorMatrix type="matrix" values="0 0 0 0 0 0 0 0 0 0 0 0 0 0 0 0 0 0 0.66 0"/>
<feBlend mode="normal" in2="BackgroundImageFix" result="effect1_dropShadow"/>
<feColorMatrix in="SourceAlpha" type="matrix" values="0 0 0 0 0 0 0 0 0 0 0 0 0 0 0 0 0 0 127 0"/>
<feOffset dy="-28.0351"/>
<feGaussianBlur stdDeviation="14.0175"/>
<feColorMatrix type="matrix" values="0 0 0 0 0.15191 0 0 0 0 0.208333 0 0 0 0 0.20128 0 0 0 1 0"/>
<feBlend mode="normal" in2="effect1_dropShadow" result="effect2_dropShadow"/>
<feBlend mode="normal" in="SourceGraphic" in2="effect2_dropShadow" result="shape"/>
<feColorMatrix in="SourceAlpha" type="matrix" values="0 0 0 0 0 0 0 0 0 0 0 0 0 0 0 0 0 0 127 0" result="hardAlpha"/>
<feOffset dy="-13.1523"/>
<feGaussianBlur stdDeviation="6.57613"/>
<feComposite in2="hardAlpha" operator="arithmetic" k2="-1" k3="1"/>
<feColorMatrix type="matrix" values="0 0 0 0 0 0 0 0 0 0 0 0 0 0 0 0 0 0 1 0"/>
<feBlend mode="normal" in2="shape" result="effect3_innerShadow"/>
<feGaussianBlur stdDeviation="6.57613" result="effect4_foregroundBlur"/>
</filter>
<filter id="filter1_d" x="165.381" y="308.503" width="512.841" height="162.511" filterUnits="userSpaceOnUse" color-interpolation-filters="sRGB">
<feFlood flood-opacity="0" result="BackgroundImageFix"/>
<feColorMatrix in="SourceAlpha" type="matrix" values="0 0 0 0 0 0 0 0 0 0 0 0 0 0 0 0 0 0 127 0"/>
<feOffset dy="13.1523"/>
<feGaussianBlur stdDeviation="6.57613"/>
<feColorMatrix type="matrix" values="0 0 0 0 0 0 0 0 0 0 0 0 0 0 0 0 0 0 0.4 0"/>
<feBlend mode="normal" in2="BackgroundImageFix" result="effect1_dropShadow"/>
<feBlend mode="normal" in="SourceGraphic" in2="effect1_dropShadow" result="shape"/>
</filter>
<filter id="filter2_d" x="252.506" y="159.191" width="338.399" height="451.989" filterUnits="userSpaceOnUse" color-interpolation-filters="sRGB">
<feFlood flood-opacity="0" result="BackgroundImageFix"/>
<feColorMatrix in="SourceAlpha" type="matrix" values="0 0 0 0 0 0 0 0 0 0 0 0 0 0 0 0 0 0 127 0"/>
<feOffset dy="13.1523"/>
<feGaussianBlur stdDeviation="6.57613"/>
<feColorMatrix type="matrix" values="0 0 0 0 0 0 0 0 0 0 0 0 0 0 0 0 0 0 0.4 0"/>
<feBlend mode="normal" in2="BackgroundImageFix" result="effect1_dropShadow"/>
<feBlend mode="normal" in="SourceGraphic" in2="effect1_dropShadow" result="shape"/>
</filter>
</defs>
</svg>
