<svg width="489" height="147" viewBox="0 0 489 147" fill="none" xmlns="http://www.w3.org/2000/svg">
<path d="M71.2486 127.146C97.9682 127.146 119.629 105.475 119.629 78.7425C119.629 52.0099 97.9682 30.3389 71.2486 30.3389C44.5288 30.3389 22.8682 52.0099 22.8682 78.7425C22.8682 105.475 44.5288 127.146 71.2486 127.146Z" fill="#E8CA9B"/>
<path d="M68.9282 91.1263C104.344 77.8745 139.557 77.8745 139.557 77.8745L139.543 139.624C139.543 139.624 115.879 139.624 87.1537 139.624L68.9282 91.1263Z" fill="#E8CA9B"/>
<path d="M2.79834 77.3842C2.79834 77.3842 81.3753 72.9218 116.778 139.624C93.9846 139.624 2.79834 139.624 2.79834 139.624V77.3842Z" fill="#E8CA9B"/>
<path d="M49.0149 103.414L48.8331 103.298C47.5376 102.473 45.8192 102.856 44.9952 104.152C44.1713 105.448 44.5533 107.167 45.8488 107.992L46.0228 108.103C46.4861 108.399 47.004 108.54 47.5162 108.54C48.4336 108.54 49.3315 108.086 49.862 107.255C50.688 105.96 50.309 104.241 49.0149 103.414Z" fill="#DFBE8B"/>
<path d="M141.523 75.9083C141.002 75.3864 140.294 75.0933 139.557 75.0933C138.938 75.0933 132.347 75.1211 122.256 76.1653C121.734 65.4136 117.937 55.3294 111.191 46.8606C104.125 37.9921 94.2008 31.6466 83.2447 28.993C81.7527 28.6324 80.2496 29.5488 79.8885 31.0418C79.5274 32.5348 80.4443 34.0381 81.9363 34.3994C101.813 39.2136 115.878 56.4937 116.72 76.8029C103.412 78.492 85.7868 81.8487 67.9544 88.5211C67.8226 88.5705 67.6991 88.6316 67.5797 88.6977C61.1926 85.5919 54.4219 82.9604 47.3106 80.8266C39.4395 78.4649 32.0616 76.9768 25.6552 76.0447C26.8187 56.1023 40.8716 39.1296 60.3994 34.3994C61.8917 34.0378 62.8086 32.5345 62.4473 31.0418C62.0859 29.5486 60.5822 28.631 59.0911 28.993C37.3026 34.271 21.5891 53.1311 20.1301 75.343C9.85097 74.2311 3.11606 74.5804 2.64095 74.6071C1.16921 74.6905 0.0185547 75.909 0.0185547 77.384V139.624C0.0185547 141.16 1.26318 142.405 2.79858 142.405H139.544C141.079 142.405 142.337 141.16 142.337 139.624V77.8751C142.337 77.1376 142.044 76.4299 141.523 75.9083ZM96.4445 108.404C116.289 100.021 131.913 98.9009 136.772 98.7665L136.77 111.645C131.596 111.974 119.985 113.415 106.901 119.634C103.67 115.647 100.182 111.901 96.4445 108.404ZM136.776 80.7244L136.773 93.1932C131.324 93.3032 113.994 94.4879 91.8495 104.334C89.8508 102.66 87.7901 101.05 85.6658 99.5082C82.0309 96.8693 78.2101 94.4277 74.2218 92.1816C101.616 82.7491 128.285 81.0344 136.776 80.7244ZM5.57805 110.007C8.2583 111.14 12.1976 113.009 16.6045 115.765C23.1285 119.844 31.894 126.673 38.6063 136.843H5.57805V110.007ZM87.1539 136.843H83.2638C75.9705 125.983 66.9865 116.494 56.5308 108.629C55.3033 107.706 53.5606 107.953 52.6381 109.181C51.7155 110.409 51.9622 112.153 53.1898 113.076C62.1392 119.807 69.9577 127.787 76.4928 136.843H45.1548C37.674 124.069 27.0903 115.74 19.3957 110.95C13.3844 107.209 8.24634 105.023 5.57805 104.007V91.8038C11.1312 92.8443 23.5298 95.7903 37.4917 103.144C37.9048 103.361 38.3476 103.464 38.7845 103.464C39.7834 103.464 40.749 102.924 41.2467 101.978C41.9621 100.619 41.4405 98.9367 40.0818 98.2213C24.4786 90.0037 10.9669 87.0607 5.57805 86.1418V80.1086C11.6502 80.1047 27.5527 80.678 45.8961 86.2098C75.4104 95.1101 97.6424 112.132 112.049 136.843H87.1539ZM118.436 136.843C115.997 132.397 113.307 128.164 110.376 124.15C121.826 118.928 132.056 117.579 136.768 117.232L136.763 136.842L118.436 136.843Z" fill="#DFBE8B"/>
<path d="M71.1686 33.1204H71.2499C72.7853 33.1204 74.0298 31.8753 74.0298 30.3391C74.0298 28.803 72.7853 27.5576 71.2499 27.5576H71.1686C69.6332 27.5576 68.3887 28.803 68.3887 30.3391C68.3887 31.8753 69.6332 33.1204 71.1686 33.1204Z" fill="#DFBE8B"/>
<path d="M71.1686 23.6891C72.704 23.6891 73.9488 22.4438 73.9488 20.9077V2.78234C73.9488 1.24619 72.704 0.000976562 71.1686 0.000976562C69.6332 0.000976562 68.3887 1.24619 68.3887 2.78234V20.9077C68.3887 22.4438 69.6332 23.6891 71.1686 23.6891Z" fill="#DFBE8B"/>
<path d="M112.039 40.626C112.75 40.626 113.462 40.3543 114.005 39.8113L126.294 27.5166C127.379 26.4304 127.379 24.6692 126.294 23.5832C125.208 22.497 123.448 22.497 122.362 23.5832L110.073 35.8779C108.988 36.9641 108.988 38.7251 110.073 39.8113C110.616 40.3545 111.328 40.626 112.039 40.626Z" fill="#DFBE8B"/>
<path d="M46.4819 26.3738C46.9254 27.4451 47.9604 28.0914 49.0515 28.0914C49.406 28.0914 49.7664 28.0235 50.1143 27.879C51.533 27.291 52.2066 25.6643 51.6189 24.2449L44.9683 8.18167C44.3808 6.76234 42.7545 6.08841 41.3361 6.67639C39.9173 7.26439 39.244 8.8912 39.8315 10.3105L46.4819 26.3738Z" fill="#DFBE8B"/>
<path d="M92.2233 27.8791C92.5711 28.0233 92.9316 28.0915 93.2862 28.0915C94.377 28.0915 95.4121 27.4447 95.8557 26.3737L102.507 10.3105C103.094 8.89116 102.42 7.26433 101.002 6.67635C99.584 6.08837 97.9575 6.76258 97.3697 8.18163L90.7187 24.2449C90.1312 25.664 90.8048 27.2911 92.2233 27.8791Z" fill="#DFBE8B"/>
<path d="M1.71686 52.9628L16.7057 59.1745C17.0535 59.3189 17.4138 59.3869 17.7685 59.3869C18.8594 59.3869 19.8944 58.7404 20.3381 57.6693C20.9255 56.2501 20.2519 54.623 18.8335 54.0354L3.84469 47.8238C2.42633 47.236 0.800279 47.9097 0.212581 49.3291C-0.375396 50.7479 0.298205 52.3748 1.71686 52.9628Z" fill="#DFBE8B"/>
<path d="M121.999 57.6694C122.443 58.7404 123.478 59.3872 124.569 59.3872C124.923 59.3872 125.284 59.319 125.632 59.1746L140.621 52.9631C142.039 52.3753 142.713 50.7482 142.125 49.3292C141.538 47.9098 139.911 47.2359 138.493 47.8239L123.504 54.0355C122.086 54.6228 121.412 56.2499 121.999 57.6694Z" fill="#DFBE8B"/>
<path d="M28.3329 39.8113C28.8759 40.3543 29.5871 40.6258 30.2986 40.6258C31.0101 40.6258 31.7217 40.354 32.2645 39.8113C33.3499 38.7251 33.3504 36.9639 32.2645 35.8777L19.9758 23.5832C18.8902 22.4969 17.1299 22.4972 16.0443 23.5832C14.9587 24.6694 14.9584 26.4306 16.0443 27.5166L28.3329 39.8113Z" fill="#DFBE8B"/>
<path d="M194.636 121.505H180.677L178.106 128.625H173.698L185.269 96.7903H190.09L201.615 128.625H197.207L194.636 121.505ZM193.442 118.105L187.657 101.935L181.871 118.105H193.442ZM217.035 103.038C219.208 103.038 221.106 103.513 222.728 104.462C224.381 105.411 225.605 106.606 226.401 108.045V103.451H230.627V129.176C230.627 131.473 230.135 133.51 229.156 135.286C228.177 137.093 226.769 138.502 224.932 139.512C223.126 140.523 221.014 141.028 218.596 141.028C215.29 141.028 212.535 140.247 210.331 138.685C208.127 137.123 206.826 134.995 206.428 132.3H210.561C211.02 133.831 211.969 135.056 213.407 135.975C214.846 136.924 216.575 137.399 218.596 137.399C220.892 137.399 222.759 136.679 224.197 135.24C225.667 133.801 226.401 131.779 226.401 129.176V123.893C225.575 125.363 224.35 126.588 222.728 127.568C221.106 128.549 219.208 129.038 217.035 129.038C214.8 129.038 212.765 128.487 210.928 127.385C209.122 126.282 207.698 124.736 206.658 122.745C205.617 120.754 205.097 118.488 205.097 115.946C205.097 113.374 205.617 111.123 206.658 109.193C207.698 107.234 209.122 105.718 210.928 104.646C212.765 103.574 214.8 103.038 217.035 103.038ZM226.401 115.992C226.401 114.093 226.019 112.44 225.254 111.031C224.488 109.622 223.447 108.55 222.131 107.815C220.846 107.05 219.422 106.667 217.861 106.667C216.3 106.667 214.877 107.034 213.591 107.769C212.305 108.504 211.28 109.576 210.515 110.985C209.749 112.394 209.367 114.047 209.367 115.946C209.367 117.876 209.749 119.56 210.515 120.999C211.28 122.408 212.305 123.495 213.591 124.261C214.877 124.996 216.3 125.363 217.861 125.363C219.422 125.363 220.846 124.996 222.131 124.261C223.447 123.495 224.488 122.408 225.254 120.999C226.019 119.56 226.401 117.891 226.401 115.992ZM241.864 107.54C242.599 106.1 243.641 104.983 244.987 104.186C246.364 103.39 248.033 102.992 249.991 102.992V107.31H248.889C244.206 107.31 241.864 109.852 241.864 114.936V128.625H237.686V103.451H241.864V107.54ZM265.789 129.038C263.431 129.038 261.289 128.503 259.36 127.431C257.462 126.359 255.963 124.843 254.861 122.883C253.789 120.892 253.254 118.595 253.254 115.992C253.254 113.42 253.805 111.153 254.907 109.193C256.038 107.203 257.57 105.687 259.498 104.646C261.427 103.574 263.585 103.038 265.972 103.038C268.36 103.038 270.518 103.574 272.446 104.646C274.375 105.687 275.89 107.188 276.992 109.148C278.124 111.107 278.691 113.389 278.691 115.992C278.691 118.595 278.11 120.892 276.946 122.883C275.814 124.843 274.267 126.359 272.309 127.431C270.35 128.503 268.176 129.038 265.789 129.038ZM265.789 125.363C267.288 125.363 268.697 125.011 270.013 124.307C271.328 123.602 272.384 122.546 273.181 121.137C274.007 119.729 274.421 118.013 274.421 115.992C274.421 113.971 274.024 112.256 273.227 110.847C272.43 109.439 271.39 108.397 270.105 107.723C268.819 107.019 267.426 106.667 265.926 106.667C264.395 106.667 262.988 107.019 261.702 107.723C260.446 108.397 259.436 109.439 258.672 110.847C257.907 112.256 257.524 113.971 257.524 115.992C257.524 118.044 257.891 119.774 258.626 121.183C259.39 122.592 260.4 123.648 261.656 124.353C262.912 125.027 264.289 125.363 265.789 125.363ZM288.363 108.091C289.189 106.652 290.413 105.457 292.036 104.508C293.689 103.528 295.602 103.038 297.776 103.038C300.009 103.038 302.03 103.574 303.836 104.646C305.673 105.718 307.113 107.234 308.153 109.193C309.193 111.123 309.714 113.374 309.714 115.946C309.714 118.488 309.193 120.754 308.153 122.745C307.113 124.736 305.673 126.282 303.836 127.385C302.03 128.487 300.009 129.038 297.776 129.038C295.634 129.038 293.735 128.564 292.082 127.614C290.459 126.634 289.219 125.425 288.363 123.985V140.569H284.185V103.451H288.363V108.091ZM305.444 115.946C305.444 114.047 305.06 112.394 304.296 110.985C303.531 109.576 302.489 108.504 301.173 107.769C299.888 107.034 298.464 106.667 296.903 106.667C295.372 106.667 293.949 107.05 292.633 107.815C291.347 108.55 290.308 109.637 289.511 111.077C288.746 112.486 288.363 114.124 288.363 115.992C288.363 117.891 288.746 119.56 289.511 120.999C290.308 122.408 291.347 123.495 292.633 124.261C293.949 124.996 295.372 125.363 296.903 125.363C298.464 125.363 299.888 124.996 301.173 124.261C302.489 123.495 303.531 122.408 304.296 120.999C305.06 119.56 305.444 117.876 305.444 115.946ZM338.172 115.073C338.172 115.87 338.126 116.712 338.034 117.6H317.923C318.075 120.081 318.917 122.025 320.449 123.434C322.01 124.812 323.892 125.501 326.096 125.501C327.901 125.501 329.402 125.088 330.596 124.261C331.82 123.404 332.676 122.27 333.167 120.862H337.667C336.992 123.281 335.647 125.256 333.626 126.788C331.606 128.288 329.095 129.038 326.096 129.038C323.709 129.038 321.564 128.503 319.668 127.431C317.799 126.359 316.33 124.843 315.26 122.883C314.188 120.892 313.653 118.595 313.653 115.992C313.653 113.389 314.172 111.107 315.214 109.148C316.254 107.188 317.708 105.687 319.576 104.646C321.473 103.574 323.647 103.038 326.096 103.038C328.484 103.038 330.596 103.559 332.433 104.6C334.269 105.641 335.677 107.08 336.657 108.918C337.667 110.725 338.172 112.777 338.172 115.073ZM333.856 114.201C333.856 112.608 333.503 111.245 332.8 110.112C332.095 108.948 331.131 108.076 329.907 107.494C328.714 106.881 327.382 106.575 325.913 106.575C323.801 106.575 321.994 107.249 320.495 108.596C319.025 109.944 318.183 111.812 317.969 114.201H333.856ZM342.125 115.992C342.125 113.389 342.647 111.123 343.687 109.193C344.727 107.234 346.166 105.718 348.003 104.646C349.869 103.574 351.997 103.038 354.385 103.038C357.477 103.038 360.016 103.788 362.007 105.289C364.027 106.789 365.359 108.872 366.001 111.536H361.502C361.072 110.005 360.232 108.795 358.976 107.907C357.753 107.019 356.221 106.575 354.385 106.575C351.997 106.575 350.069 107.402 348.6 109.056C347.13 110.679 346.396 112.991 346.396 115.992C346.396 119.024 347.13 121.367 348.6 123.021C350.069 124.674 351.997 125.501 354.385 125.501C356.221 125.501 357.753 125.072 358.976 124.215C360.2 123.358 361.043 122.132 361.502 120.54H366.001C365.329 123.113 363.981 125.18 361.961 126.742C359.941 128.273 357.415 129.038 354.385 129.038C351.997 129.038 349.869 128.503 348.003 127.431C346.166 126.359 344.727 124.843 343.687 122.883C342.647 120.923 342.125 118.626 342.125 115.992ZM393.893 103.451V128.625H389.715V124.904C388.918 126.19 387.8 127.201 386.363 127.936C384.953 128.64 383.392 128.993 381.679 128.993C379.719 128.993 377.96 128.594 376.399 127.798C374.838 126.971 373.598 125.746 372.68 124.123C371.791 122.5 371.348 120.525 371.348 118.197V103.451H375.481V117.646C375.481 120.127 376.107 122.041 377.363 123.388C378.617 124.705 380.332 125.363 382.506 125.363C384.74 125.363 386.5 124.674 387.786 123.296C389.072 121.918 389.715 119.912 389.715 117.278V103.451H393.893ZM399.384 115.946C399.384 113.374 399.905 111.123 400.945 109.193C401.988 107.234 403.411 105.718 405.216 104.646C407.052 103.574 409.089 103.038 411.322 103.038C413.526 103.038 415.441 103.513 417.062 104.462C418.685 105.411 419.895 106.606 420.689 108.045V103.451H424.913V128.625H420.689V123.939C419.863 125.409 418.623 126.634 416.97 127.614C415.349 128.564 413.451 129.038 411.276 129.038C409.043 129.038 407.022 128.487 405.216 127.385C403.411 126.282 401.988 124.736 400.945 122.745C399.905 120.754 399.384 118.488 399.384 115.946ZM420.689 115.992C420.689 114.093 420.308 112.44 419.541 111.031C418.777 109.622 417.737 108.55 416.419 107.815C415.133 107.05 413.71 106.667 412.149 106.667C410.588 106.667 409.164 107.034 407.879 107.769C406.593 108.504 405.569 109.576 404.802 110.985C404.038 112.394 403.654 114.047 403.654 115.946C403.654 117.876 404.038 119.56 404.802 120.999C405.569 122.408 406.593 123.495 407.879 124.261C409.164 124.996 410.588 125.363 412.149 125.363C413.71 125.363 415.133 124.996 416.419 124.261C417.737 123.495 418.777 122.408 419.541 120.999C420.308 119.56 420.689 117.891 420.689 115.992ZM417.429 96.331L407.649 101.568V98.4441L417.429 92.7019V96.331ZM436.153 107.54C436.888 106.1 437.928 104.983 439.276 104.186C440.653 103.39 442.322 102.992 444.28 102.992V107.31H443.179C438.495 107.31 436.153 109.852 436.153 114.936V128.625H431.975V103.451H436.153V107.54ZM451.262 99.3628C450.465 99.3628 449.793 99.0872 449.242 98.536C448.691 97.9847 448.415 97.311 448.415 96.5147C448.415 95.7184 448.691 95.0447 449.242 94.4935C449.793 93.9422 450.465 93.6666 451.262 93.6666C452.026 93.6666 452.669 93.9422 453.19 94.4935C453.741 95.0447 454.017 95.7184 454.017 96.5147C454.017 97.311 453.741 97.9847 453.19 98.536C452.669 99.0872 452.026 99.3628 451.262 99.3628ZM453.282 103.451V128.625H449.104V103.451H453.282ZM458.843 115.946C458.843 113.374 459.364 111.123 460.404 109.193C461.444 107.234 462.867 105.718 464.674 104.646C466.51 103.574 468.547 103.038 470.781 103.038C472.985 103.038 474.897 103.513 476.52 104.462C478.143 105.411 479.351 106.606 480.147 108.045V103.451H484.372V128.625H480.147V123.939C479.321 125.409 478.081 126.634 476.428 127.614C474.805 128.564 472.909 129.038 470.735 129.038C468.501 129.038 466.481 128.487 464.674 127.385C462.867 126.282 461.444 124.736 460.404 122.745C459.364 120.754 458.843 118.488 458.843 115.946ZM480.147 115.992C480.147 114.093 479.764 112.44 479 111.031C478.235 109.622 477.193 108.55 475.877 107.815C474.592 107.05 473.168 106.667 471.607 106.667C470.046 106.667 468.623 107.034 467.337 107.769C466.051 108.504 465.025 109.576 464.261 110.985C463.496 112.394 463.113 114.047 463.113 115.946C463.113 117.876 463.496 119.56 464.261 120.999C465.025 122.408 466.051 123.495 467.337 124.261C468.623 124.996 470.046 125.363 471.607 125.363C473.168 125.363 474.592 124.996 475.877 124.261C477.193 123.495 478.235 122.408 479 120.999C479.764 119.56 480.147 117.891 480.147 115.992Z" fill="#E8CA9B"/>
<path d="M208.181 50.8987V82.6874H204.003V58.9837L193.442 82.6874H190.504L179.897 58.9378V82.6874H175.719V50.8987H180.218L191.973 77.1749L203.727 50.8987H208.181ZM213.706 70.0087C213.706 67.4362 214.226 65.1853 215.267 63.2559C216.308 61.296 217.731 59.78 219.537 58.7081C221.374 57.6361 223.409 57.1003 225.644 57.1003C227.848 57.1003 229.761 57.575 231.384 58.5243C233.005 59.4736 234.215 60.668 235.012 62.1074V57.5137H239.236V82.6874H235.012V78.0018C234.185 79.4718 232.946 80.6967 231.293 81.6768C229.669 82.6261 227.771 83.1009 225.598 83.1009C223.363 83.1009 221.343 82.5496 219.537 81.4471C217.731 80.3446 216.308 78.7981 215.267 76.8074C214.226 74.8167 213.706 72.5506 213.706 70.0087ZM235.012 70.0546C235.012 68.1558 234.628 66.502 233.864 65.0934C233.097 63.6847 232.057 62.6128 230.742 61.8778C229.455 61.1122 228.032 60.7293 226.471 60.7293C224.909 60.7293 223.486 61.0968 222.2 61.8318C220.915 62.5668 219.889 63.6388 219.124 65.0474C218.359 66.4561 217.976 68.1099 217.976 70.0087C217.976 71.9381 218.359 73.6224 219.124 75.0618C219.889 76.4705 220.915 77.5578 222.2 78.3234C223.486 79.0584 224.909 79.4259 226.471 79.4259C228.032 79.4259 229.455 79.0584 230.742 78.3234C232.057 77.5578 233.097 76.4705 233.864 75.0618C234.628 73.6224 235.012 71.9535 235.012 70.0546ZM250.474 61.6021C251.208 60.1627 252.251 59.045 253.596 58.2487C254.973 57.4524 256.643 57.0543 258.601 57.0543V61.3724H257.499C252.815 61.3724 250.474 63.9144 250.474 68.9981V82.6874H246.295V57.5137H250.474V61.6021ZM265.582 53.4253C264.786 53.4253 264.113 53.1496 263.562 52.5984C263.011 52.0471 262.735 51.3735 262.735 50.5771C262.735 49.7808 263.011 49.1071 263.562 48.5559C264.113 48.0046 264.786 47.729 265.582 47.729C266.347 47.729 266.99 48.0046 267.511 48.5559C268.062 49.1071 268.337 49.7808 268.337 50.5771C268.337 51.3735 268.062 52.0471 267.511 52.5984C266.99 53.1496 266.347 53.4253 265.582 53.4253ZM267.603 57.5137V82.6874H263.424V57.5137H267.603ZM286.983 57.0543C290.044 57.0543 292.523 57.9885 294.422 59.8565C296.32 61.694 297.269 64.3584 297.269 67.8496V82.6874H293.136V68.4468C293.136 65.9356 292.509 64.0214 291.254 62.7046C289.998 61.357 288.285 60.6834 286.111 60.6834C283.907 60.6834 282.146 61.3724 280.831 62.7506C279.545 64.1287 278.902 66.1346 278.902 68.7684V82.6874H274.724V57.5137H278.902V61.0968C279.729 59.8106 280.847 58.8153 282.254 58.1109C283.694 57.4064 285.269 57.0543 286.983 57.0543ZM316.583 57.0543C318.481 57.0543 320.194 57.4677 321.725 58.2946C323.257 59.091 324.451 60.3005 325.307 61.9237C326.195 63.5469 326.638 65.5222 326.638 67.8496V82.6874H322.506V68.4468C322.506 65.9356 321.879 64.0214 320.623 62.7046C319.368 61.357 317.655 60.6834 315.481 60.6834C313.277 60.6834 311.516 61.3724 310.201 62.7506C308.915 64.1287 308.272 66.1346 308.272 68.7684V82.6874H304.094V48.6937H308.272V61.0968C309.099 59.8106 310.23 58.8153 311.67 58.1109C313.139 57.4064 314.776 57.0543 316.583 57.0543ZM344.438 83.1009C342.08 83.1009 339.938 82.565 338.009 81.4931C336.111 80.4211 334.612 78.9052 333.51 76.9452C332.438 74.9545 331.903 72.6577 331.903 70.0546C331.903 67.4821 332.454 65.2158 333.556 63.2559C334.687 61.2652 336.219 59.7492 338.147 58.7081C340.076 57.6361 342.234 57.1003 344.621 57.1003C347.009 57.1003 349.167 57.6361 351.095 58.7081C353.024 59.7492 354.539 61.25 355.641 63.2099C356.773 65.1699 357.34 67.4516 357.34 70.0546C357.34 72.6577 356.759 74.9545 355.595 76.9452C354.463 78.9052 352.916 80.4211 350.958 81.4931C348.999 82.565 346.825 83.1009 344.438 83.1009ZM344.438 79.4259C345.937 79.4259 347.346 79.0738 348.662 78.3693C349.977 77.6649 351.033 76.6083 351.83 75.1996C352.656 73.791 353.07 72.0759 353.07 70.0546C353.07 68.0334 352.672 66.3183 351.876 64.9096C351.079 63.501 350.039 62.4595 348.754 61.7859C347.468 61.0814 346.074 60.7293 344.575 60.7293C343.044 60.7293 341.637 61.0814 340.351 61.7859C339.095 62.4595 338.085 63.501 337.321 64.9096C336.556 66.3183 336.173 68.0334 336.173 70.0546C336.173 72.1064 336.54 73.8369 337.275 75.2456C338.039 76.6542 339.049 77.7108 340.305 78.4152C341.561 79.0889 342.938 79.4259 344.438 79.4259Z" fill="#E8CA9B"/>
</svg>
