<svg width="237" height="55" viewBox="0 0 237 55" fill="none" xmlns="http://www.w3.org/2000/svg">
<path d="M32.6358 39.828C32.6358 38.9371 32.2892 38.0996 31.6592 37.4704C31.2283 37.0388 30.7042 36.7646 30.1533 36.6196L31.9033 34.8687C32.5333 34.2395 32.88 33.402 32.88 32.5121C32.88 31.6212 32.5333 30.7845 31.9033 30.1554C31.2741 29.5254 30.4366 29.1788 29.5467 29.1788C28.6559 29.1788 27.8191 29.5254 27.1892 30.1554L25.685 31.6596C25.5366 31.098 25.255 30.578 24.8324 30.1554C24.2024 29.5254 23.3657 29.1788 22.4749 29.1788C21.5849 29.1788 20.7474 29.5254 20.1183 30.1554L18.0241 32.2496C17.8758 31.6871 17.5941 31.167 17.1716 30.7446C16.5424 30.1146 15.7058 29.7679 14.8149 29.7679C13.9241 29.7679 13.0874 30.1146 12.4583 30.7446L6.54746 36.6545H0.833301C0.37334 36.6545 0 37.0279 0 37.4878C0 37.9478 0.37334 38.3211 0.833301 38.3211H5.2666C4.79658 39.5287 5.0333 40.997 5.97578 41.9403C7.01162 42.9745 8.55742 43.1711 9.80244 42.5578C9.9166 43.2044 10.2116 43.8194 10.6907 44.2978C11.7183 45.3245 13.249 45.5261 14.4899 44.9294C14.6141 45.5786 14.9266 46.1769 15.4041 46.6544C16.4316 47.6811 17.9633 47.8836 19.2041 47.2861C19.3282 47.9361 19.6407 48.5335 20.1183 49.0111C20.7475 49.6411 21.585 49.9877 22.4749 49.9877C23.3657 49.9877 24.2024 49.6411 24.8324 49.0111L31.6591 42.1844C32.2892 41.5554 32.6358 40.7179 32.6358 39.828ZM7.1542 40.7621C6.84004 40.4471 6.6667 40.0288 6.6667 39.5838C6.6667 39.138 6.84004 38.7197 7.1542 38.4046L7.48174 38.0771L13.6367 31.9229C13.9518 31.6079 14.37 31.4346 14.815 31.4346C15.2601 31.4346 15.6784 31.6079 15.9934 31.9229C16.6226 32.5529 16.6226 33.6504 15.9934 34.2795L9.51172 40.7621C8.86162 41.4113 7.8042 41.4113 7.1542 40.7621ZM11.8691 43.1197C11.5541 42.8046 11.3808 42.3855 11.3808 41.9405C11.3808 41.4954 11.5541 41.0771 11.8691 40.7621L21.2967 31.3338C21.6117 31.0188 22.03 30.8455 22.475 30.8455C22.9208 30.8455 23.3392 31.0189 23.6542 31.3338C24.2834 31.963 24.2834 33.0614 23.6542 33.6905L19.9875 37.3572L15.4042 41.9405C15.4033 41.9413 15.4033 41.9413 15.4025 41.9421L14.2259 43.1197C13.5759 43.7688 12.5184 43.7688 11.8691 43.1197ZM16.5825 45.4763C16.2684 45.1613 16.095 44.743 16.095 44.2971C16.095 43.853 16.2675 43.4346 16.5809 43.1204L21.1658 38.5355L28.3684 31.3338C28.6825 31.0188 29.1009 30.8455 29.5467 30.8455C29.9917 30.8455 30.4101 31.0189 30.725 31.3338C31.3542 31.963 31.3542 33.0614 30.725 33.6905L26.9475 37.4688C26.9466 37.4688 26.9458 37.4697 26.9449 37.4704L23.5315 40.8838L18.9398 45.4755C18.29 46.1254 17.2325 46.1254 16.5825 45.4763ZM22.475 48.3213C22.03 48.3213 21.6116 48.148 21.2967 47.8329C20.9825 47.5179 20.8092 47.0996 20.8092 46.6546C20.8092 46.2088 20.9825 45.7905 21.2967 45.4763L21.7775 44.9954L28.1268 38.6462C28.7768 37.9996 29.8317 37.9996 30.481 38.6488C31.1102 39.278 31.1109 40.3763 30.481 41.0063L23.6543 47.8329C23.3392 48.148 22.9208 48.3213 22.475 48.3213Z" fill="#E8CA9B"/>
<path d="M20.8333 13.3454C21.2933 13.3454 21.6666 12.973 21.6666 12.5121C21.6666 12.0522 21.2933 11.6788 20.8333 11.6788C14.81 11.6788 11.26 14.193 9.13916 15.6955C8.52002 16.1338 7.75 16.6787 7.5 16.6787H0.833301C0.37334 16.6787 0 17.0521 0 17.512C0 17.9729 0.37334 18.3453 0.833301 18.3453H7.5C8.27998 18.3453 9.04502 17.8045 10.1025 17.0545C12.1884 15.578 15.34 13.3454 20.8333 13.3454Z" fill="#E8CA9B"/>
<path d="M46.6667 37.488C46.6667 37.948 47.0401 38.3213 47.5 38.3213H49.1667C49.6267 38.3213 50 37.948 50 37.488C50 37.0281 49.6267 36.6547 49.1667 36.6547H47.5C47.0401 36.6547 46.6667 37.0281 46.6667 37.488Z" fill="#E8CA9B"/>
<path d="M21.8066 15.3838C20.4999 17.3438 16.9299 23.4997 16.754 23.8063C16.4765 24.3629 16.5149 24.9813 16.8649 25.5463C17.6174 26.7647 19.6832 27.5122 20.8332 27.5122C22.4341 27.5122 23.4074 26.3888 24.4374 25.1988C24.7941 24.7863 25.1641 24.3604 25.5891 23.9346L29.7558 19.7679C30.0325 19.492 30.2933 19.2313 30.3716 19.1955C30.4183 19.1804 30.5957 19.1788 30.77 19.1788C31.2966 19.3754 33.0566 20.9146 34.3832 22.2396L42.7415 31.4321C42.9799 31.6746 43.3332 32.1863 43.3332 32.5121V40.0121C43.3332 40.9312 42.5858 41.6788 41.6665 41.6788C40.7473 41.6788 39.9998 40.9313 39.9998 40.0121V34.1788C39.9998 33.0337 39.0324 32.0337 38.9223 31.9229L33.089 26.0896C32.7632 25.7646 32.2365 25.7646 31.9107 26.0896C31.5848 26.4155 31.5848 26.9429 31.9107 27.2679L37.7415 33.0988C37.9799 33.3413 38.3332 33.853 38.3332 34.1788V40.0121V42.5121C38.3332 43.4312 37.5858 44.1788 36.6665 44.1788C35.7474 44.1788 34.9998 43.4313 34.9998 42.5121V35.8454C34.9998 35.3854 34.6265 35.0121 34.1665 35.0121C33.7066 35.0121 33.3332 35.3854 33.3332 35.8454V42.5121V45.0121C33.3332 45.9312 32.5858 46.6788 31.6665 46.6788C31.2549 46.6788 30.8607 46.528 30.5557 46.2546C30.2123 45.9471 29.6857 45.9763 29.3782 46.3188C29.0706 46.6622 29.1006 47.1888 29.4432 47.4955C30.0548 48.0438 30.8441 48.3455 31.6665 48.3455C33.3849 48.3455 34.7866 47.0346 34.9649 45.3629C35.4649 45.6629 36.0424 45.8455 36.6665 45.8455C38.3849 45.8455 39.7866 44.5346 39.9649 42.8629C40.4649 43.1629 41.0424 43.3455 41.6665 43.3455C43.5049 43.3455 44.9998 41.8504 44.9998 40.0122V32.5122C44.9998 31.3671 44.0324 30.3671 43.9498 30.2846L35.589 21.0896C32.0115 17.5121 31.1248 17.5121 30.8331 17.5121C29.7273 17.5121 29.519 17.6479 28.5773 18.5896L24.4106 22.7563C23.9422 23.2238 23.5365 23.6938 23.1773 24.108C22.1881 25.2497 21.6348 25.8455 20.8331 25.8455C19.7815 25.8455 18.244 24.9488 18.2206 24.5971C18.2573 24.5338 21.9148 18.2254 23.1931 16.308C24.6297 14.153 26.8914 11.6788 31.6664 11.6788C35.2431 11.6788 40.0923 14.4913 43.3006 16.3521C45.5931 17.6821 46.7289 18.3212 47.4997 18.3212H49.1664C49.6264 18.3212 49.9997 17.9479 49.9997 17.4879C49.9997 17.028 49.6264 16.6546 49.1664 16.6546H47.5089C47.0856 16.6205 45.5189 15.7122 44.1372 14.9105C40.5731 12.8438 35.6922 10.0122 31.6664 10.0122C26.0383 10.0122 23.3441 13.078 21.8066 15.3838Z" fill="#E8CA9B"/>
<path d="M72.65 26.315C72.65 25.615 72.825 25.09 73.175 24.74C73.525 24.3667 73.9683 24.18 74.505 24.18C75.0417 24.18 75.4733 24.3433 75.8 24.67V32.09C75.8 36.6167 77.1417 38.88 79.825 38.88C80.4083 38.88 80.9217 38.705 81.365 38.355C80.385 37.4217 79.65 36.255 79.16 34.855C78.67 33.455 78.425 32.1017 78.425 30.795C78.425 28.485 78.7517 26.7467 79.405 25.58C80.0817 24.39 81.2133 23.795 82.8 23.795C83.8967 23.795 84.7717 24.1683 85.425 24.915C86.1017 25.6617 86.44 26.6533 86.44 27.89C86.44 32.3467 85.4717 35.73 83.535 38.04C84.3283 38.5067 85.215 38.74 86.195 38.74C87.5017 38.74 88.575 38.18 89.415 37.06C90.255 35.94 90.675 34.225 90.675 31.915C90.6983 31.775 90.8733 31.705 91.2 31.705C91.62 31.705 91.83 32.2533 91.83 33.35C91.83 35.2867 91.34 36.8967 90.36 38.18C89.38 39.4633 87.8867 40.105 85.88 40.105C84.5267 40.105 83.36 39.7783 82.38 39.125C81.4467 39.7783 80.455 40.105 79.405 40.105C77.3983 40.105 75.765 39.3817 74.505 37.935C73.2683 36.4883 72.65 34.4817 72.65 31.915V26.315ZM82.275 25.685C80.8983 25.685 80.21 27.19 80.21 30.2C80.21 33.21 80.9217 35.5083 82.345 37.095C83.2317 35.4383 83.675 32.6733 83.675 28.8C83.675 26.7233 83.2083 25.685 82.275 25.685ZM90.9159 20.75C90.5192 20.3533 90.3209 19.8633 90.3209 19.28C90.3209 18.6967 90.5192 18.2067 90.9159 17.81C91.3126 17.39 91.8026 17.18 92.3859 17.18C92.9692 17.18 93.4592 17.39 93.8559 17.81C94.2759 18.2067 94.4859 18.6967 94.4859 19.28C94.4859 19.8633 94.2759 20.3533 93.8559 20.75C93.4592 21.1467 92.9692 21.345 92.3859 21.345C91.8026 21.345 91.3126 21.1467 90.9159 20.75ZM90.7759 26.315C90.7759 25.615 90.9509 25.09 91.3009 24.74C91.6509 24.3667 92.0942 24.18 92.6309 24.18C93.1676 24.18 93.5992 24.3433 93.9259 24.67V34.715C93.9259 36.045 94.1826 37.0483 94.6959 37.725C95.2092 38.4017 95.9092 38.74 96.7959 38.74C97.6826 38.74 98.5109 38.2033 99.2809 37.13C100.051 36.0567 100.436 34.3183 100.436 31.915C100.483 31.775 100.658 31.705 100.961 31.705C101.381 31.705 101.591 32.3233 101.591 33.56C101.591 35.3567 101.101 36.8967 100.121 38.18C99.1409 39.4633 97.8926 40.105 96.3759 40.105C94.4859 40.105 93.0742 39.545 92.1409 38.425C91.2309 37.305 90.7759 35.7183 90.7759 33.665V26.315ZM100.515 21.135C100.515 20.435 100.69 19.91 101.04 19.56C101.39 19.1867 101.833 19 102.37 19C102.906 19 103.338 19.1633 103.665 19.49V24.67H108.46C108.95 24.67 109.265 24.7633 109.405 24.95C109.568 25.1367 109.65 25.4517 109.65 25.895H103.665V34.715C103.665 35.9983 104.026 36.99 104.75 37.69C105.496 38.39 106.348 38.74 107.305 38.74C108.751 38.74 109.813 38.2033 110.49 37.13C111.166 36.0567 111.505 34.3183 111.505 31.915C111.551 31.775 111.726 31.705 112.03 31.705C112.45 31.705 112.66 32.3233 112.66 33.56C112.66 35.45 112.181 37.0133 111.225 38.25C110.291 39.4867 108.845 40.105 106.885 40.105C104.925 40.105 103.373 39.5917 102.23 38.565C101.086 37.5383 100.515 36.01 100.515 33.98V21.135ZM121.984 25.195C122.287 24.5183 122.766 24.18 123.419 24.18C124.096 24.18 124.597 24.3433 124.924 24.67V34.715C124.924 36.045 125.134 37.0483 125.554 37.725C125.974 38.4017 126.546 38.74 127.269 38.74C129.462 38.74 130.559 36.465 130.559 31.915C130.582 31.775 130.757 31.705 131.084 31.705C131.504 31.705 131.714 32.3233 131.714 33.56C131.714 35.5433 131.282 37.13 130.419 38.32C129.579 39.51 128.389 40.105 126.849 40.105C124.492 40.105 122.929 39.0667 122.159 36.99C121.716 37.9467 121.109 38.705 120.339 39.265C119.569 39.825 118.694 40.105 117.714 40.105C113.631 40.105 111.589 37.4333 111.589 32.09C111.589 29.3833 112.219 27.3883 113.479 26.105C114.762 24.8217 116.454 24.18 118.554 24.18C120.164 24.18 121.307 24.5183 121.984 25.195ZM115.404 36.395C115.731 37.4217 116.104 38.075 116.524 38.355C116.944 38.6117 117.504 38.74 118.204 38.74C118.904 38.74 119.662 38.3083 120.479 37.445C121.319 36.5583 121.739 35.415 121.739 34.015V29.22C121.739 28.1233 121.447 27.2367 120.864 26.56C120.304 25.8833 119.662 25.545 118.939 25.545C118.239 25.545 117.679 25.615 117.259 25.755C116.839 25.895 116.442 26.1867 116.069 26.63C115.299 27.47 114.914 29.29 114.914 32.09C114.914 33.9333 115.077 35.3683 115.404 36.395ZM140.917 31.705C141.337 31.705 141.547 32.3233 141.547 33.56C141.547 35.3567 141.057 36.8967 140.077 38.18C139.097 39.4633 137.849 40.105 136.332 40.105C134.442 40.105 133.03 39.545 132.097 38.425C131.164 37.305 130.697 35.7183 130.697 33.665V20.505C130.697 17.495 131.012 15.29 131.642 13.89C132.272 12.49 133.38 11.79 134.967 11.79C137.277 11.79 138.432 13.3533 138.432 16.48C138.432 18.8367 137.965 20.7267 137.032 22.15C136.122 23.5733 135.072 24.635 133.882 25.335V34.715C133.882 36.045 134.139 37.0483 134.652 37.725C135.165 38.4017 135.865 38.74 136.752 38.74C137.639 38.74 138.467 38.2033 139.237 37.13C140.007 36.0567 140.392 34.3183 140.392 31.915C140.439 31.775 140.614 31.705 140.917 31.705ZM136.927 16.515C136.927 14.275 136.367 13.155 135.247 13.155C134.967 13.155 134.745 13.2483 134.582 13.435C134.442 13.6217 134.314 14.0883 134.197 14.835C133.987 15.9783 133.882 18.9883 133.882 23.865C135.912 22.395 136.927 19.945 136.927 16.515ZM163.17 25.195C163.474 24.5183 163.952 24.18 164.605 24.18C165.282 24.18 165.784 24.3433 166.11 24.67V34.715C166.11 36.045 166.32 37.0483 166.74 37.725C167.16 38.4017 167.732 38.74 168.455 38.74C170.649 38.74 171.745 36.465 171.745 31.915C171.769 31.775 171.944 31.705 172.27 31.705C172.69 31.705 172.9 32.3233 172.9 33.56C172.9 35.5433 172.469 37.13 171.605 38.32C170.765 39.51 169.575 40.105 168.035 40.105C165.679 40.105 164.115 39.0667 163.345 36.99C162.902 37.9467 162.295 38.705 161.525 39.265C160.755 39.825 159.88 40.105 158.9 40.105C154.817 40.105 152.775 37.4333 152.775 32.09C152.775 29.3833 153.405 27.3883 154.665 26.105C155.949 24.8217 157.64 24.18 159.74 24.18C161.35 24.18 162.494 24.5183 163.17 25.195ZM156.59 36.395C156.917 37.4217 157.29 38.075 157.71 38.355C158.13 38.6117 158.69 38.74 159.39 38.74C160.09 38.74 160.849 38.3083 161.665 37.445C162.505 36.5583 162.925 35.415 162.925 34.015V29.22C162.925 28.1233 162.634 27.2367 162.05 26.56C161.49 25.8833 160.849 25.545 160.125 25.545C159.425 25.545 158.865 25.615 158.445 25.755C158.025 25.895 157.629 26.1867 157.255 26.63C156.485 27.47 156.1 29.29 156.1 32.09C156.1 33.9333 156.264 35.3683 156.59 36.395ZM171.778 26.315C171.778 25.615 171.953 25.09 172.303 24.74C172.653 24.3667 173.097 24.18 173.633 24.18C174.17 24.18 174.602 24.3433 174.928 24.67V44.025C175.208 44.0017 175.652 43.99 176.258 43.99C176.865 43.99 177.168 44.2467 177.168 44.76L176.958 45.285C176.048 45.285 175.372 45.2967 174.928 45.32V46.055C174.928 48.295 174.45 50.0567 173.493 51.34C172.537 52.6233 171.253 53.265 169.643 53.265C168.71 53.265 167.882 52.9617 167.158 52.355C166.435 51.7483 166.073 50.78 166.073 49.45C166.073 48.12 166.598 47.035 167.648 46.195C168.675 45.355 170.052 44.76 171.778 44.41V26.315ZM169.573 51.9C170.32 51.9 170.88 51.585 171.253 50.955C171.603 50.325 171.778 49.17 171.778 47.49V45.74C169.165 46.37 167.858 47.6417 167.858 49.555C167.858 51.1183 168.43 51.9 169.573 51.9ZM171.918 18.825C171.522 18.4283 171.323 17.9383 171.323 17.355C171.323 16.7717 171.522 16.2817 171.918 15.885C172.315 15.465 172.805 15.255 173.388 15.255C173.972 15.255 174.462 15.465 174.858 15.885C175.278 16.2817 175.488 16.7717 175.488 17.355C175.488 17.9383 175.278 18.4283 174.858 18.825C174.462 19.2217 173.972 19.42 173.388 19.42C172.805 19.42 172.315 19.2217 171.918 18.825ZM188.167 26.315C188.167 25.615 188.365 25.09 188.762 24.74C189.159 24.3667 189.637 24.18 190.197 24.18C190.757 24.18 191.2 24.3433 191.527 24.67V34.715C191.527 36.045 191.737 37.0483 192.157 37.725C192.577 38.4017 193.149 38.74 193.872 38.74C194.595 38.74 195.295 38.32 195.972 37.48C196.765 36.4767 197.162 34.6217 197.162 31.915C197.185 31.775 197.36 31.705 197.687 31.705C198.107 31.705 198.317 32.3233 198.317 33.56C198.317 35.5433 197.885 37.13 197.022 38.32C196.182 39.51 194.992 40.105 193.452 40.105C191.002 40.105 189.392 38.9967 188.622 36.78C187.712 38.9967 186.044 40.105 183.617 40.105C182.17 40.105 181.004 39.6733 180.117 38.81C179.23 37.9233 178.787 36.6633 178.787 35.03V26.315C178.787 25.615 178.962 25.09 179.312 24.74C179.662 24.3667 180.105 24.18 180.642 24.18C181.179 24.18 181.61 24.3433 181.937 24.67V34.715C181.937 37.4917 182.637 38.88 184.037 38.88C185.087 38.88 186.032 38.25 186.872 36.99C187.735 35.73 188.167 33.9567 188.167 31.67V26.315ZM197.209 31.88C197.209 29.1967 197.839 27.2483 199.099 26.035C200.382 24.7983 202.074 24.18 204.174 24.18C205.527 24.18 206.601 24.4483 207.394 24.985V20.225C207.394 17.285 207.686 15.15 208.269 13.82C208.876 12.4667 209.996 11.79 211.629 11.79C212.516 11.79 213.204 12.1633 213.694 12.91C214.184 13.6567 214.429 14.7183 214.429 16.095C214.429 18.5917 213.134 21.135 210.544 23.725V34.715C210.544 36.045 210.766 37.0483 211.209 37.725C211.676 38.4017 212.282 38.74 213.029 38.74C213.776 38.74 214.487 38.285 215.164 37.375C215.864 36.4417 216.214 34.9717 216.214 32.965C216.214 32.5217 216.202 32.1717 216.179 31.915C216.202 31.775 216.377 31.705 216.704 31.705C217.124 31.705 217.334 32.3233 217.334 33.56C217.334 35.4967 216.891 37.0717 216.004 38.285C215.141 39.4983 214.021 40.105 212.644 40.105C210.147 40.105 208.514 39.0083 207.744 36.815C207.301 37.795 206.694 38.5883 205.924 39.195C205.154 39.7783 204.291 40.07 203.334 40.07C199.251 40.07 197.209 37.34 197.209 31.88ZM203.684 38.705C204.547 38.705 205.364 38.2383 206.134 37.305C206.927 36.3483 207.324 35.135 207.324 33.665V29.185C207.324 28.0417 207.044 27.155 206.484 26.525C205.947 25.8717 205.306 25.545 204.559 25.545C203.836 25.545 203.264 25.6033 202.844 25.72C202.447 25.8367 202.051 26.0933 201.654 26.49C200.907 27.26 200.534 29.0567 200.534 31.88C200.534 34.7267 200.861 36.5933 201.514 37.48C202.097 38.2967 202.821 38.705 203.684 38.705ZM211.664 13.155C211.174 13.155 210.859 13.7033 210.719 14.8C210.602 15.8733 210.544 18.2883 210.544 22.045C212.131 19.9917 212.924 17.9967 212.924 16.06C212.924 14.1233 212.504 13.155 211.664 13.155ZM226.574 25.195C226.877 24.5183 227.355 24.18 228.009 24.18C228.685 24.18 229.187 24.3433 229.514 24.67V34.715C229.514 36.045 229.724 37.0483 230.144 37.725C230.564 38.4017 231.135 38.74 231.859 38.74C234.052 38.74 235.149 36.465 235.149 31.915C235.172 31.775 235.347 31.705 235.674 31.705C236.094 31.705 236.304 32.3233 236.304 33.56C236.304 35.5433 235.872 37.13 235.009 38.32C234.169 39.51 232.979 40.105 231.439 40.105C229.082 40.105 227.519 39.0667 226.749 36.99C226.305 37.9467 225.699 38.705 224.929 39.265C224.159 39.825 223.284 40.105 222.304 40.105C218.22 40.105 216.179 37.4333 216.179 32.09C216.179 29.3833 216.809 27.3883 218.069 26.105C219.352 24.8217 221.044 24.18 223.144 24.18C224.754 24.18 225.897 24.5183 226.574 25.195ZM219.994 36.395C220.32 37.4217 220.694 38.075 221.114 38.355C221.534 38.6117 222.094 38.74 222.794 38.74C223.494 38.74 224.252 38.3083 225.069 37.445C225.909 36.5583 226.329 35.415 226.329 34.015V29.22C226.329 28.1233 226.037 27.2367 225.454 26.56C224.894 25.8833 224.252 25.545 223.529 25.545C222.829 25.545 222.269 25.615 221.849 25.755C221.429 25.895 221.032 26.1867 220.659 26.63C219.889 27.47 219.504 29.29 219.504 32.09C219.504 33.9333 219.667 35.3683 219.994 36.395Z" fill="#E8CA9B"/>
</svg>
