<svg width="38" height="37" viewBox="0 0 38 37" fill="none" xmlns="http://www.w3.org/2000/svg">
<g clip-path="url(#clip0)">
<path d="M19 37C29.2173 37 37.5 28.7173 37.5 18.5C37.5 8.28273 29.2173 0 19 0C8.78273 0 0.5 8.28273 0.5 18.5C0.5 28.7173 8.78273 37 19 37Z" fill="#6DA544"/>
<path d="M18.9999 7.23914L34.2825 18.5L18.9999 29.7609L3.71729 18.5L18.9999 7.23914Z" fill="#FFDA44"/>
<path d="M18.9997 24.9347C22.5535 24.9347 25.4344 22.0538 25.4344 18.5C25.4344 14.9462 22.5535 12.0652 18.9997 12.0652C15.4459 12.0652 12.5649 14.9462 12.5649 18.5C12.5649 22.0538 15.4459 24.9347 18.9997 24.9347Z" fill="#F0F0F0"/>
<path d="M15.7817 18.0978C14.6628 18.0978 13.5829 18.268 12.5664 18.5838C12.6114 22.0988 15.4734 24.9348 18.9991 24.9348C21.1792 24.9348 23.1047 23.8496 24.2687 22.191C22.2772 19.6981 19.2131 18.0978 15.7817 18.0978Z" fill="#0052B4"/>
<path d="M25.3146 19.7328C25.392 19.3336 25.4339 18.9218 25.4339 18.5C25.4339 14.9461 22.5529 12.0652 18.9991 12.0652C16.3474 12.0652 14.0711 13.6696 13.0859 15.9603C13.9567 15.7798 14.8583 15.6848 15.7818 15.6848C19.5192 15.6847 22.9002 17.2383 25.3146 19.7328Z" fill="#0052B4"/>
<path d="M19 37C29.2173 37 37.5 28.7173 37.5 18.5C37.5 8.28273 29.2173 0 19 0C8.78273 0 0.5 8.28273 0.5 18.5C0.5 28.7173 8.78273 37 19 37Z" fill="#1B201F" fill-opacity="0.3"/>
</g>
<defs>
<clipPath id="clip0">
<rect width="37" height="37" fill="white" transform="translate(0.5)"/>
</clipPath>
</defs>
</svg>
