<svg width="37" height="37" viewBox="0 0 37 37" fill="none" xmlns="http://www.w3.org/2000/svg">
<path d="M18.5 37C28.7173 37 37 28.7173 37 18.5C37 8.28273 28.7173 0 18.5 0C8.28273 0 0 8.28273 0 18.5C0 28.7173 8.28273 37 18.5 37Z" fill="#F0F0F0"/>
<path d="M3.82468 7.23682C2.37149 9.1275 1.27573 11.3067 0.637695 13.674H10.2619L3.82468 7.23682Z" fill="#0052B4"/>
<path d="M36.3628 13.674C35.7248 11.3067 34.6289 9.12757 33.1758 7.23688L26.7388 13.674H36.3628Z" fill="#0052B4"/>
<path d="M0.637695 23.3262C1.2758 25.6935 2.37156 27.8726 3.82468 29.7632L10.2617 23.3262H0.637695Z" fill="#0052B4"/>
<path d="M29.7638 3.82436C27.8731 2.37117 25.694 1.2754 23.3267 0.637299V10.2614L29.7638 3.82436Z" fill="#0052B4"/>
<path d="M7.2373 33.1756C9.12799 34.6288 11.3072 35.7246 13.6744 36.3627V26.7386L7.2373 33.1756Z" fill="#0052B4"/>
<path d="M13.6744 0.637299C11.3071 1.2754 9.12792 2.37117 7.2373 3.82428L13.6744 10.2613V0.637299Z" fill="#0052B4"/>
<path d="M23.3267 36.3627C25.6939 35.7246 27.8731 34.6288 29.7637 33.1757L23.3267 26.7386V36.3627Z" fill="#0052B4"/>
<path d="M26.7388 23.3262L33.1758 29.7633C34.6289 27.8727 35.7248 25.6934 36.3628 23.3262H26.7388Z" fill="#0052B4"/>
<path d="M36.8434 16.087H20.9132H20.9131V0.1566C20.1232 0.0537656 19.3178 0 18.5 0C17.682 0 16.8768 0.0537656 16.087 0.1566V16.0868V16.0869H0.1566C0.0537656 16.8768 0 17.6822 0 18.5C0 19.318 0.0537656 20.1232 0.1566 20.913H16.0868H16.0869V36.8434C16.8768 36.9462 17.682 37 18.5 37C19.3178 37 20.1232 36.9463 20.913 36.8434V20.9132V20.9131H36.8434C36.9462 20.1232 37 19.318 37 18.5C37 17.6822 36.9462 16.8768 36.8434 16.087Z" fill="#D80027"/>
<path d="M23.3257 23.3262L31.581 31.5815C31.9607 31.202 32.3229 30.8052 32.6685 30.3938L25.6008 23.3261H23.3257V23.3262Z" fill="#D80027"/>
<path d="M13.6739 23.3262H13.6737L5.41846 31.5814C5.798 31.9611 6.19481 32.3233 6.60614 32.6689L13.6739 25.601V23.3262Z" fill="#D80027"/>
<path d="M13.6738 13.674V13.6739L5.41851 5.41846C5.03882 5.798 4.67663 6.19481 4.33105 6.60614L11.3988 13.6739H13.6738V13.674Z" fill="#D80027"/>
<path d="M23.3257 13.674L31.5811 5.41856C31.2016 5.03887 30.8047 4.67668 30.3934 4.33118L23.3257 11.399V13.674V13.674Z" fill="#D80027"/>
<path d="M18.5 37C28.7173 37 37 28.7173 37 18.5C37 8.28273 28.7173 0 18.5 0C8.28273 0 0 8.28273 0 18.5C0 28.7173 8.28273 37 18.5 37Z" fill="#1B201F" fill-opacity="0.3"/>
</svg>
