<svg width="54" height="54" viewBox="0 0 54 54" fill="none" xmlns="http://www.w3.org/2000/svg">
<path d="M23.3398 16.8496C23.3398 15.3913 23.7109 14.3398 24.4531 13.6953C25.2148 13.0378 26.4355 12.709 28.1152 12.709H28.7109V19.7305C28.7109 22.7578 27.8451 24.6979 26.1133 25.5508C25.5078 25.8503 24.7819 26 23.9355 26H23.3398V16.8496ZM21.0352 26C19.401 26 18.1836 25.4303 17.3828 24.291C16.6406 23.2363 16.2695 21.7161 16.2695 19.7305V12.709H16.8652C18.5449 12.709 19.7656 13.0378 20.5273 13.6953C21.2695 14.3398 21.6406 15.3913 21.6406 16.8496V26H21.0352ZM31.5332 12.709H36.7871V26H31.5332V12.709ZM23.3301 29.709H24.209C26.6048 29.709 28.0339 30.5195 28.4961 32.1406C28.6523 32.6745 28.7305 33.2865 28.7305 33.9766V43H23.3301V29.709ZM16.2402 29.709H21.4941V43H16.2402V29.709ZM31.5332 29.709H36.7871V43H31.5332V29.709Z" fill="#077558"/>
<circle cx="27" cy="27" r="26" stroke="#077558" stroke-width="2"/>
</svg>
