<svg width="39" height="37" viewBox="0 0 39 37" fill="none" xmlns="http://www.w3.org/2000/svg">
<path d="M16.607 11.341C16.607 10.3034 16.871 9.55522 17.3991 9.09661C17.9411 8.62874 18.8097 8.3948 20.0048 8.3948H20.4287V13.3909C20.4287 15.5449 19.8126 16.9254 18.5804 17.5322C18.1496 17.7453 17.633 17.8519 17.0308 17.8519H16.607V11.341ZM14.9671 17.8519C13.8044 17.8519 12.9381 17.4465 12.3683 16.6359C11.8402 15.8854 11.5762 14.8037 11.5762 13.3909V8.3948H12C13.1952 8.3948 14.0638 8.62874 14.6058 9.09661C15.1339 9.55522 15.3979 10.3034 15.3979 11.341V17.8519H14.9671ZM22.4369 8.3948H26.1752V17.8519H22.4369V8.3948ZM16.6 20.3948H17.2254C18.9301 20.3948 19.9469 20.9715 20.2758 22.125C20.387 22.5049 20.4426 22.9403 20.4426 23.4313V29.8519H16.6V20.3948ZM11.5553 20.3948H15.2937V29.8519H11.5553V20.3948ZM22.4369 20.3948H26.1752V29.8519H22.4369V20.3948Z" fill="#00BA89"/>
<path d="M37.7115 18.5C37.7115 28.2992 29.4544 36.2885 19.2115 36.2885C8.96872 36.2885 0.711538 28.2992 0.711538 18.5C0.711538 8.70078 8.96872 0.711538 19.2115 0.711538C29.4544 0.711538 37.7115 8.70078 37.7115 18.5Z" stroke="#00BA89" stroke-width="1.42308"/>
</svg>
