<svg width="771" height="823" viewBox="0 0 771 823" fill="none" xmlns="http://www.w3.org/2000/svg">
<g filter="url(#filter0_ddif)">
<circle cx="385.579" cy="411.579" r="359.579" fill="#1E2523"/>
</g>
<g filter="url(#filter1_d)">
<path d="M186.458 354.073C190.852 364.998 201.199 373.413 213.349 378.124C225.563 382.86 238.429 383.398 247.049 379.931C254.716 376.847 258.452 370.106 258.969 360.103C259.496 349.93 256.53 337.343 251.559 324.985C242.293 301.947 219.539 293.04 202.107 300.051C185.28 306.819 176.911 330.337 186.458 354.073Z" fill="#E5B588" stroke="#0E1110" stroke-width="10.67"/>
<path d="M220.232 360.339C237.73 353.084 247.44 363.363 250.108 369.409C249.574 353.226 240.505 322.354 208.495 328.329" stroke="#0E1110" stroke-width="10.67" stroke-linecap="round" stroke-linejoin="round"/>
<path d="M585.268 354.073C580.874 364.998 570.527 373.413 558.377 378.124C546.163 382.86 533.298 383.398 524.677 379.931C517.01 376.847 513.274 370.106 512.757 360.103C512.231 349.93 515.196 337.343 520.167 324.985C529.433 301.947 552.187 293.04 569.619 300.051C586.446 306.819 594.815 330.337 585.268 354.073Z" fill="#E5B588" stroke="#0E1110" stroke-width="10.67"/>
<path d="M551.497 360.339C533.998 353.084 524.288 363.363 521.621 369.409C522.154 353.226 531.224 322.354 563.234 328.329" stroke="#0E1110" stroke-width="10.67" stroke-linecap="round" stroke-linejoin="round"/>
</g>
<path d="M114 631L338.633 548.665H435.73L654 631C436.332 866.167 202 736 114 631Z" fill="url(#paint0_linear)"/>
<path d="M338.5 544L114.5 625" stroke="url(#paint1_linear)" stroke-width="11" stroke-linecap="round" stroke-linejoin="round"/>
<path d="M439 544L654 626.5" stroke="url(#paint2_linear)" stroke-width="11" stroke-linecap="round" stroke-linejoin="round"/>
<path d="M341.3 566.803V475.042H435.196V566.803C398.064 600.521 357.127 580.852 341.3 566.803Z" fill="#E5B588" stroke="#0E1110" stroke-width="10.67"/>
<g filter="url(#filter2_d)">
<path d="M523.307 343.464C515.01 490.837 469.879 521.346 386.366 526C305.965 521.346 253.056 487.735 247.35 343.464C236.976 241.595 286.672 148 386.366 148C464.174 148 531.604 196.09 523.307 343.464Z" fill="#E6B588"/>
</g>
<path d="M364.773 412.905C375.062 415.69 400.605 417.078 420.46 400.352" stroke="#0E1110" stroke-width="10.67" stroke-linecap="round" stroke-linejoin="round"/>
<path d="M452.267 399.796C474.034 459.957 507.573 374.729 521.622 324.594C521.622 511.815 429.505 536.16 383.446 524.93V465.371C432.101 484.623 449.6 429.676 452.267 399.796Z" fill="#7B6E55"/>
<path d="M315.159 399.796C293.392 459.957 259.853 374.729 245.804 324.594C245.804 511.815 337.922 536.16 383.981 524.93V465.371C335.326 484.623 317.827 429.676 315.159 399.796Z" fill="#7B6E55"/>
<path d="M384.514 180.016C352.504 154.835 310.002 174.148 292.752 186.952C381.526 115.676 455.647 157.253 481.611 186.952C440.638 155.795 399.807 169.346 384.514 180.016Z" fill="#7B6E55" fill-opacity="0.74"/>
<path d="M249.533 344.124L249.527 343.959L249.51 343.795C244.27 292.178 254.252 243.046 277.711 207C301.054 171.133 337.835 148.006 387.181 148.006C426.094 148.006 461.731 160.035 486.72 189.908C511.798 219.887 526.923 268.749 522.698 344.035C518.445 419.809 504.771 464.174 482.552 490.254C460.633 515.981 429.507 524.916 387.186 527.316C346.575 524.919 314.119 515.234 290.877 488.978C267.422 462.479 252.45 418.107 249.533 344.124Z" stroke="#0E1110" stroke-width="10.67"/>
<path d="M397.507 438.763H366.298C361.139 438.763 358.099 444.554 361.029 448.801L376.765 471.607C379.322 475.313 384.804 475.292 387.332 471.566L402.805 448.759C405.689 444.509 402.644 438.763 397.507 438.763Z" fill="#0E1110" stroke="#0E1110" stroke-width="10.67"/>
<path d="M315.868 405.529C314.76 405.966 313.904 404.642 314.829 403.891C335.331 387.235 382.495 363.206 390.581 372.578C398.811 382.118 346.498 393.456 315.868 405.529Z" fill="#0E1110" stroke="#0E1110" stroke-width="10.67"/>
<path d="M449.957 405.529C451.065 405.966 451.921 404.642 450.997 403.891C430.494 387.235 383.33 363.206 375.244 372.578C367.014 382.118 419.327 393.456 449.957 405.529Z" fill="#0E1110" stroke="#0E1110" stroke-width="10.67"/>
<circle cx="318.893" cy="313.925" r="10.67" fill="#0E1110"/>
<ellipse cx="451.734" cy="313.925" rx="11.2035" ry="10.67" fill="#0E1110"/>
<path d="M271.048 264.56C271.071 264.444 271.111 264.339 271.171 264.237C277.901 252.983 297.028 229.697 320.495 225.392C343.484 221.176 360.868 226.114 367.18 229.321C367.474 229.47 367.674 229.748 367.724 230.075C368.833 237.266 366.907 249.813 350.603 246.214C329.728 241.607 289.62 253.734 278.911 266.113C270.45 275.895 270.13 269.256 271.048 264.56Z" fill="#0E1110"/>
<path d="M501.538 281.632C501.515 281.516 501.475 281.411 501.414 281.309C494.685 270.055 475.558 246.769 452.091 242.464C429.102 238.248 411.718 243.186 405.406 246.393C405.112 246.542 404.912 246.82 404.862 247.147C403.753 254.338 405.679 266.885 421.983 263.286C442.858 258.679 482.966 270.806 493.675 283.185C502.136 292.967 502.456 286.328 501.538 281.632Z" fill="#0E1110"/>
<path d="M396.177 282.981H495.479C497.518 299.71 498.741 331.33 484.81 338.999C470.88 346.668 439.207 345.947 421.324 342.752C403.44 339.557 396.177 282.981 396.177 282.981Z" fill="#B6D3CB" fill-opacity="0.6"/>
<path d="M373.335 282.981H274.034C271.994 299.71 270.772 331.33 284.703 338.999C298.633 346.668 330.305 345.947 348.189 342.752C366.073 339.557 373.335 282.981 373.335 282.981Z" fill="#B6D3CB" fill-opacity="0.6"/>
<path d="M495.479 282.981L500.775 282.336C500.448 279.659 498.176 277.646 495.479 277.646V282.981ZM396.177 282.981V277.646C394.644 277.646 393.185 278.306 392.172 279.457C391.159 280.609 390.69 282.14 390.886 283.661L396.177 282.981ZM421.324 342.752L420.385 348.004L421.324 342.752ZM484.81 338.999L482.237 334.325L484.81 338.999ZM274.034 282.981V277.646C271.337 277.646 269.064 279.659 268.738 282.336L274.034 282.981ZM373.335 282.981L378.627 283.661C378.822 282.14 378.354 280.609 377.341 279.457C376.328 278.306 374.869 277.646 373.335 277.646V282.981ZM348.189 342.752L349.127 348.004L348.189 342.752ZM495.479 277.646H396.177V288.316H495.479V277.646ZM396.177 282.981C390.886 283.661 390.886 283.662 390.886 283.663C390.886 283.664 390.886 283.665 390.886 283.666C390.887 283.669 390.887 283.673 390.888 283.677C390.889 283.686 390.891 283.699 390.893 283.715C390.897 283.746 390.903 283.791 390.91 283.849C390.926 283.965 390.949 284.133 390.979 284.35C391.039 284.784 391.128 285.414 391.248 286.212C391.488 287.807 391.85 290.08 392.34 292.813C393.318 298.267 394.819 305.614 396.905 313.1C398.975 320.531 401.692 328.366 405.186 334.655C408.499 340.62 413.361 346.749 420.385 348.004L422.262 337.5C420.344 337.158 417.592 335.016 414.514 329.474C411.616 324.257 409.165 317.349 407.183 310.237C405.217 303.18 403.785 296.183 402.843 290.929C402.373 288.309 402.027 286.136 401.8 284.625C401.686 283.87 401.602 283.281 401.548 282.885C401.52 282.687 401.5 282.537 401.487 282.439C401.48 282.39 401.475 282.353 401.472 282.33C401.471 282.319 401.47 282.311 401.469 282.306C401.469 282.304 401.469 282.302 401.469 282.302C401.469 282.301 401.469 282.301 401.469 282.301C401.469 282.302 401.469 282.302 396.177 282.981ZM420.385 348.004C429.713 349.67 442.475 350.672 454.719 350.282C466.724 349.899 479.232 348.16 487.383 343.673L482.237 334.325C476.458 337.507 466.164 339.242 454.379 339.617C442.834 339.985 430.818 339.029 422.262 337.5L420.385 348.004ZM487.383 343.673C492.289 340.972 495.475 336.378 497.558 331.434C499.646 326.475 500.816 320.72 501.437 314.959C502.68 303.431 501.818 290.891 500.775 282.336L490.183 283.627C491.179 291.8 491.948 303.434 490.829 313.816C490.269 319.01 489.261 323.643 487.724 327.293C486.181 330.957 484.297 333.192 482.237 334.325L487.383 343.673ZM274.034 288.316H373.335V277.646H274.034V288.316ZM373.335 282.981C368.044 282.302 368.044 282.302 368.044 282.301C368.044 282.301 368.044 282.301 368.044 282.302C368.044 282.302 368.044 282.304 368.043 282.306C368.043 282.311 368.042 282.319 368.04 282.33C368.037 282.353 368.032 282.39 368.026 282.439C368.013 282.537 367.992 282.687 367.965 282.885C367.91 283.281 367.826 283.87 367.713 284.625C367.485 286.136 367.14 288.309 366.67 290.929C365.728 296.183 364.295 303.18 362.329 310.237C360.348 317.349 357.897 324.257 354.999 329.474C351.921 335.016 349.168 337.157 347.251 337.5L349.127 348.004C356.152 346.749 361.013 340.62 364.327 334.655C367.82 328.366 370.538 320.531 372.608 313.1C374.693 305.614 376.194 298.267 377.172 292.813C377.663 290.08 378.024 287.807 378.264 286.212C378.384 285.414 378.474 284.784 378.534 284.35C378.564 284.133 378.587 283.965 378.602 283.849C378.61 283.791 378.616 283.746 378.62 283.714C378.622 283.699 378.624 283.686 378.625 283.677C378.625 283.673 378.626 283.669 378.626 283.666C378.626 283.665 378.627 283.664 378.627 283.663C378.627 283.662 378.627 283.661 373.335 282.981ZM347.251 337.5C338.695 339.029 326.678 339.985 315.133 339.617C303.349 339.242 293.055 337.507 287.275 334.325L282.13 343.673C290.281 348.16 302.788 349.899 314.793 350.282C327.038 350.672 339.799 349.67 349.127 348.004L347.251 337.5ZM287.275 334.325C285.216 333.192 283.332 330.957 281.789 327.293C280.252 323.643 279.244 319.01 278.684 313.816C277.565 303.434 278.333 291.8 279.33 283.627L268.738 282.336C267.695 290.891 266.833 303.431 268.075 314.959C268.696 320.719 269.867 326.475 271.955 331.434C274.037 336.378 277.224 340.972 282.13 343.673L287.275 334.325Z" fill="#0E1110"/>
<path d="M371.361 303.663H396.304" stroke="#0E1110" stroke-width="10.67"/>
<path d="M237.8 293.713H269.81" stroke="#0E1110" stroke-width="10.67" stroke-linecap="round" stroke-linejoin="round"/>
<path d="M501.354 293.713H533.364" stroke="#0E1110" stroke-width="10.67" stroke-linecap="round" stroke-linejoin="round"/>
<defs>
<filter id="filter0_ddif" x="0.315788" y="0.631577" width="770.526" height="821.895" filterUnits="userSpaceOnUse" color-interpolation-filters="sRGB">
<feFlood flood-opacity="0" result="BackgroundImageFix"/>
<feColorMatrix in="SourceAlpha" type="matrix" values="0 0 0 0 0 0 0 0 0 0 0 0 0 0 0 0 0 0 127 0"/>
<feOffset dy="25.6842"/>
<feGaussianBlur stdDeviation="12.8421"/>
<feColorMatrix type="matrix" values="0 0 0 0 0 0 0 0 0 0 0 0 0 0 0 0 0 0 0.66 0"/>
<feBlend mode="normal" in2="BackgroundImageFix" result="effect1_dropShadow"/>
<feColorMatrix in="SourceAlpha" type="matrix" values="0 0 0 0 0 0 0 0 0 0 0 0 0 0 0 0 0 0 127 0"/>
<feOffset dy="-25.6842"/>
<feGaussianBlur stdDeviation="12.8421"/>
<feColorMatrix type="matrix" values="0 0 0 0 0.15191 0 0 0 0 0.208333 0 0 0 0 0.20128 0 0 0 1 0"/>
<feBlend mode="normal" in2="effect1_dropShadow" result="effect2_dropShadow"/>
<feBlend mode="normal" in="SourceGraphic" in2="effect2_dropShadow" result="shape"/>
<feColorMatrix in="SourceAlpha" type="matrix" values="0 0 0 0 0 0 0 0 0 0 0 0 0 0 0 0 0 0 127 0" result="hardAlpha"/>
<feOffset dy="-12.0494"/>
<feGaussianBlur stdDeviation="6.02469"/>
<feComposite in2="hardAlpha" operator="arithmetic" k2="-1" k3="1"/>
<feColorMatrix type="matrix" values="0 0 0 0 0 0 0 0 0 0 0 0 0 0 0 0 0 0 0.49 0"/>
<feBlend mode="normal" in2="shape" result="effect3_innerShadow"/>
<feGaussianBlur stdDeviation="6.02469" result="effect4_foregroundBlur"/>
</filter>
<filter id="filter1_d" x="150.945" y="279.462" width="469.837" height="148.884" filterUnits="userSpaceOnUse" color-interpolation-filters="sRGB">
<feFlood flood-opacity="0" result="BackgroundImageFix"/>
<feColorMatrix in="SourceAlpha" type="matrix" values="0 0 0 0 0 0 0 0 0 0 0 0 0 0 0 0 0 0 127 0"/>
<feOffset dy="12.0494"/>
<feGaussianBlur stdDeviation="6.02469"/>
<feColorMatrix type="matrix" values="0 0 0 0 0 0 0 0 0 0 0 0 0 0 0 0 0 0 0.4 0"/>
<feBlend mode="normal" in2="BackgroundImageFix" result="effect1_dropShadow"/>
<feBlend mode="normal" in="SourceGraphic" in2="effect1_dropShadow" result="shape"/>
</filter>
<filter id="filter2_d" x="233.951" y="148" width="302.099" height="402.099" filterUnits="userSpaceOnUse" color-interpolation-filters="sRGB">
<feFlood flood-opacity="0" result="BackgroundImageFix"/>
<feColorMatrix in="SourceAlpha" type="matrix" values="0 0 0 0 0 0 0 0 0 0 0 0 0 0 0 0 0 0 127 0"/>
<feOffset dy="12.0494"/>
<feGaussianBlur stdDeviation="6.02469"/>
<feColorMatrix type="matrix" values="0 0 0 0 0 0 0 0 0 0 0 0 0 0 0 0 0 0 0.4 0"/>
<feBlend mode="normal" in2="BackgroundImageFix" result="effect1_dropShadow"/>
<feBlend mode="normal" in="SourceGraphic" in2="effect1_dropShadow" result="shape"/>
</filter>
<linearGradient id="paint0_linear" x1="382.647" y1="548.665" x2="382.647" y2="811.173" gradientUnits="userSpaceOnUse">
<stop stop-color="#111917"/>
<stop offset="1" stop-color="#1E2523" stop-opacity="0"/>
</linearGradient>
<linearGradient id="paint1_linear" x1="239" y1="585" x2="23.5" y2="665" gradientUnits="userSpaceOnUse">
<stop stop-color="#0E1110"/>
<stop offset="1" stop-color="#0E1110" stop-opacity="0"/>
</linearGradient>
<linearGradient id="paint2_linear" x1="538.5" y1="585" x2="754" y2="665" gradientUnits="userSpaceOnUse">
<stop stop-color="#0E1110"/>
<stop offset="1" stop-color="#0E1110" stop-opacity="0"/>
</linearGradient>
</defs>
</svg>
