<svg width="516" height="516" viewBox="0 0 516 516" fill="none" xmlns="http://www.w3.org/2000/svg">
<circle cx="258" cy="258" r="254" fill="#0A4435" stroke="#00BA89" stroke-width="8"/>
<path d="M119.831 219.41C122.847 226.908 129.964 232.712 138.363 235.969C146.81 239.244 155.675 239.601 161.579 237.227C166.769 235.139 169.329 230.582 169.685 223.696C170.048 216.682 168.002 207.976 164.554 199.404C158.164 183.516 142.502 177.422 130.55 182.229C119.051 186.854 113.231 202.999 119.831 219.41Z" fill="#E5B588" stroke="#0E1110" stroke-width="8"/>
<path d="M143.042 223.875C155.208 218.831 161.959 225.977 163.814 230.181C163.443 218.93 157.137 197.466 134.882 201.62" stroke="#0E1110" stroke-width="8" stroke-linecap="round" stroke-linejoin="round"/>
<path d="M396.567 219.41C393.551 226.908 386.434 232.712 378.035 235.969C369.588 239.244 360.723 239.601 354.818 237.227C349.629 235.139 347.069 230.582 346.713 223.696C346.35 216.682 348.396 207.976 351.844 199.404C358.234 183.516 373.896 177.422 385.848 182.229C397.347 186.854 403.167 202.999 396.567 219.41Z" fill="#E5B588" stroke="#0E1110" stroke-width="8"/>
<path d="M373.356 223.875C361.189 218.831 354.439 225.977 352.584 230.181C352.955 218.93 359.261 197.466 381.516 201.62" stroke="#0E1110" stroke-width="8" stroke-linecap="round" stroke-linejoin="round"/>
<path d="M64.7502 413.786L225.359 354.81H292.866L447.169 413.786C295.833 577.288 129.167 481.912 64.7502 413.786Z" fill="#0E1110"/>
<path d="M67.3468 412.303L226.842 354.068M293.608 354.068L448.281 414.899" stroke="black" stroke-width="8"/>
<path d="M227.213 367.421V303.623H292.495V367.421C266.679 390.863 238.217 377.189 227.213 367.421Z" fill="#E5B588" stroke="black" stroke-width="8"/>
<g filter="url(#filter0_d)">
<path d="M357.035 212.748C351.103 318.46 318.831 340.344 259.113 343.682C201.62 340.344 163.786 316.234 159.706 212.748C152.288 139.677 187.824 72.54 259.113 72.54C314.751 72.54 362.968 107.036 357.035 212.748Z" fill="#E5B588"/>
<path d="M163.703 212.59L163.698 212.467L163.686 212.344C160.047 176.507 166.98 142.418 183.247 117.424C199.426 92.564 224.91 76.54 259.113 76.54C286.107 76.54 310.792 84.883 328.095 105.568C345.465 126.334 355.977 160.221 353.042 212.524C350.086 265.192 340.582 295.955 325.199 314.011C310.041 331.803 288.506 338.007 259.117 339.676C230.922 338.01 208.456 331.286 192.375 313.12C176.134 294.771 165.73 264.004 163.703 212.59Z" stroke="#0E1110" stroke-width="8"/>
</g>
<path d="M243.534 260.422C250.688 262.358 268.446 263.323 282.251 251.694" stroke="#0E1110" stroke-width="8" stroke-linecap="round" stroke-linejoin="round"/>
<path d="M304.365 251.308C319.498 293.135 342.817 233.88 352.584 199.024C352.584 329.19 288.539 346.117 256.516 338.309V296.9C290.344 310.284 302.51 272.082 304.365 251.308Z" fill="#7B6E55"/>
<path d="M209.039 251.308C193.905 293.135 170.587 233.88 160.819 199.024C160.819 329.19 224.864 346.117 256.887 338.309V296.9C223.059 310.284 210.893 272.082 209.039 251.308Z" fill="#7B6E55"/>
<path d="M257.258 98.5044C235.003 80.997 205.453 94.4243 193.46 103.326C255.181 53.7715 306.714 82.6785 324.765 103.326C296.279 81.6647 267.891 91.086 257.258 98.5044Z" fill="#7B6E55" fill-opacity="0.74"/>
<path d="M163.703 212.59L163.698 212.467L163.686 212.344C160.047 176.507 166.98 142.418 183.247 117.424C199.426 92.564 224.91 76.54 259.113 76.54C286.107 76.54 310.792 84.883 328.095 105.568C345.465 126.334 355.977 160.221 353.042 212.524C350.086 265.192 340.582 295.955 325.199 314.011C310.041 331.803 288.506 338.007 259.117 339.676C230.922 338.01 208.456 331.286 192.375 313.12C176.134 294.771 165.73 264.004 163.703 212.59Z" stroke="#0E1110" stroke-width="8"/>
<path d="M264.412 278.401H246.494C242.103 278.401 239.516 283.328 242.01 286.942L251.044 300.036C253.22 303.19 257.885 303.172 260.036 300.001L268.92 286.907C271.374 283.29 268.783 278.401 264.412 278.401Z" fill="#0E1110" stroke="#0E1110" stroke-width="8"/>
<path d="M210.395 254.958C209.45 255.323 208.749 254.195 209.544 253.567C224.16 242.02 255.95 225.978 261.477 232.385C267.123 238.929 231.794 246.69 210.395 254.958Z" fill="#0E1110" stroke="#0E1110" stroke-width="8"/>
<path d="M301.895 254.958C302.841 255.323 303.542 254.195 302.746 253.567C288.131 242.02 256.341 225.978 250.814 232.385C245.168 238.929 280.497 246.69 301.895 254.958Z" fill="#0E1110" stroke="#0E1110" stroke-width="8"/>
<circle cx="211.635" cy="191.605" r="7.4184" fill="#0E1110"/>
<ellipse cx="303.994" cy="191.605" rx="7.78932" ry="7.4184" fill="#0E1110"/>
<path d="M178.365 157.312C178.384 157.213 178.419 157.123 178.47 157.037C183.161 149.204 196.449 133.042 212.749 130.053C228.641 127.138 240.681 130.516 245.131 132.746C245.383 132.872 245.556 133.112 245.598 133.39C246.341 138.403 244.956 147.018 233.682 144.529C219.168 141.326 191.283 149.757 183.837 158.364C177.971 165.146 177.733 160.575 178.365 157.312Z" fill="#0E1110"/>
<path d="M338.625 169.181C338.606 169.082 338.572 168.992 338.52 168.906C333.829 161.073 320.542 144.912 304.242 141.922C288.349 139.007 276.309 142.385 271.859 144.615C271.608 144.741 271.434 144.981 271.393 145.259C270.649 150.272 272.035 158.887 283.309 156.399C297.822 153.195 325.708 161.627 333.153 170.234C339.02 177.015 339.257 172.444 338.625 169.181Z" fill="#0E1110"/>
<g filter="url(#filter1_d)">
<path d="M265.368 170.092H334.408C335.826 181.722 336.676 203.707 326.991 209.039C317.305 214.37 295.285 213.869 282.851 211.648C270.417 209.426 265.368 170.092 265.368 170.092Z" fill="#B6D3CB" fill-opacity="0.6"/>
<path d="M249.487 170.092H180.447C179.029 181.722 178.179 203.707 187.864 209.039C197.55 214.37 219.57 213.869 232.004 211.648C244.438 209.426 249.487 170.092 249.487 170.092Z" fill="#B6D3CB" fill-opacity="0.6"/>
<path d="M334.408 170.092L338.379 169.608C338.134 167.601 336.43 166.092 334.408 166.092V170.092ZM265.368 170.092V166.092C264.218 166.092 263.124 166.587 262.365 167.45C261.606 168.313 261.254 169.461 261.401 170.601L265.368 170.092ZM282.851 211.648L283.555 207.71L283.555 207.71L282.851 211.648ZM326.991 209.039L325.062 205.534L325.062 205.534L326.991 209.039ZM180.447 170.092V166.092C178.425 166.092 176.721 167.601 176.476 169.608L180.447 170.092ZM249.487 170.092L253.455 170.601C253.601 169.461 253.25 168.313 252.49 167.45C251.731 166.587 250.637 166.092 249.487 166.092V170.092ZM232.004 211.648L231.3 207.71L231.3 207.71L232.004 211.648ZM187.864 209.039L189.793 205.534L189.793 205.534L187.864 209.039ZM334.408 166.092H265.368V174.092H334.408V166.092ZM265.368 170.092C261.401 170.601 261.401 170.602 261.401 170.603C261.401 170.603 261.401 170.604 261.401 170.605C261.401 170.607 261.402 170.61 261.402 170.613C261.403 170.619 261.404 170.628 261.406 170.639C261.408 170.661 261.413 170.693 261.418 170.734C261.429 170.815 261.445 170.932 261.466 171.084C261.508 171.386 261.57 171.825 261.654 172.381C261.821 173.493 262.073 175.075 262.414 176.979C263.095 180.776 264.141 185.894 265.594 191.11C267.035 196.285 268.932 201.758 271.377 206.16C273.687 210.318 277.125 214.688 282.148 215.585L283.555 207.71C282.361 207.497 280.505 206.117 278.371 202.275C276.372 198.677 274.675 193.9 273.3 188.963C271.937 184.069 270.943 179.214 270.288 175.566C269.962 173.747 269.722 172.24 269.565 171.192C269.486 170.668 269.428 170.259 269.39 169.985C269.371 169.848 269.357 169.744 269.348 169.676C269.343 169.642 269.34 169.617 269.338 169.602C269.337 169.594 269.336 169.588 269.336 169.585C269.336 169.583 269.335 169.582 269.335 169.582C269.335 169.582 269.335 169.582 269.335 169.582C269.335 169.582 269.335 169.583 265.368 170.092ZM282.148 215.585C288.654 216.748 297.547 217.446 306.079 217.174C314.432 216.907 323.188 215.698 328.92 212.543L325.062 205.534C321.108 207.711 314.012 208.917 305.824 209.178C297.817 209.433 289.482 208.769 283.555 207.71L282.148 215.585ZM328.92 212.543C332.408 210.622 334.659 207.364 336.122 203.892C337.588 200.409 338.407 196.376 338.84 192.356C339.707 184.31 339.105 175.567 338.379 169.608L330.438 170.576C331.129 176.248 331.661 184.312 330.886 191.499C330.499 195.095 329.802 198.285 328.749 200.787C327.691 203.299 326.416 204.789 325.062 205.534L328.92 212.543ZM180.447 174.092H249.487V166.092H180.447V174.092ZM249.487 170.092C245.52 169.583 245.52 169.582 245.52 169.582C245.52 169.582 245.52 169.582 245.52 169.582C245.52 169.582 245.52 169.583 245.519 169.585C245.519 169.588 245.518 169.594 245.517 169.602C245.515 169.617 245.512 169.642 245.507 169.676C245.498 169.744 245.484 169.848 245.465 169.985C245.427 170.259 245.369 170.668 245.29 171.192C245.133 172.24 244.893 173.748 244.567 175.566C243.912 179.214 242.918 184.069 241.555 188.963C240.18 193.9 238.483 198.677 236.484 202.275C234.351 206.117 232.494 207.497 231.3 207.71L232.707 215.585C237.73 214.688 241.168 210.318 243.478 206.16C245.923 201.758 247.82 196.285 249.261 191.11C250.715 185.894 251.76 180.776 252.441 176.979C252.782 175.075 253.034 173.493 253.201 172.381C253.285 171.825 253.347 171.386 253.389 171.084C253.41 170.932 253.426 170.815 253.437 170.734C253.443 170.693 253.447 170.661 253.45 170.639C253.451 170.628 253.452 170.619 253.453 170.613C253.453 170.61 253.454 170.607 253.454 170.605C253.454 170.604 253.454 170.603 253.454 170.603C253.454 170.602 253.455 170.601 249.487 170.092ZM231.3 207.71C225.373 208.769 217.039 209.433 209.031 209.178C200.844 208.917 193.747 207.711 189.793 205.534L185.935 212.543C191.667 215.698 200.423 216.907 208.776 217.174C217.308 217.446 226.201 216.748 232.707 215.585L231.3 207.71ZM189.793 205.534C188.439 204.789 187.165 203.299 186.107 200.787C185.053 198.285 184.357 195.095 183.969 191.499C183.194 184.312 183.726 176.248 184.418 170.576L176.476 169.608C175.75 175.567 175.148 184.31 176.015 192.356C176.448 196.376 177.267 200.409 178.734 203.892C180.196 207.364 182.447 210.622 185.935 212.543L189.793 205.534Z" fill="#0E1110"/>
</g>
<path d="M248.114 184.471H265.455" stroke="#0E1110" stroke-width="8"/>
<path d="M155.255 177.553H177.51" stroke="#0E1110" stroke-width="8" stroke-linecap="round" stroke-linejoin="round"/>
<path d="M338.492 177.553H360.747" stroke="#0E1110" stroke-width="8" stroke-linecap="round" stroke-linejoin="round"/>
<circle cx="258" cy="258" r="246" stroke="black" stroke-width="8"/>
<defs>
<filter id="filter0_d" x="150.74" y="68.54" width="214.79" height="287.142" filterUnits="userSpaceOnUse" color-interpolation-filters="sRGB">
<feFlood flood-opacity="0" result="BackgroundImageFix"/>
<feColorMatrix in="SourceAlpha" type="matrix" values="0 0 0 0 0 0 0 0 0 0 0 0 0 0 0 0 0 0 127 0"/>
<feOffset dy="4"/>
<feGaussianBlur stdDeviation="4"/>
<feColorMatrix type="matrix" values="0 0 0 0 0 0 0 0 0 0 0 0 0 0 0 0 0 0 0.4 0"/>
<feBlend mode="normal" in2="BackgroundImageFix" result="effect1_dropShadow"/>
<feBlend mode="normal" in="SourceGraphic" in2="effect1_dropShadow" result="shape"/>
</filter>
<filter id="filter1_d" x="171.587" y="166.092" width="171.682" height="59.1404" filterUnits="userSpaceOnUse" color-interpolation-filters="sRGB">
<feFlood flood-opacity="0" result="BackgroundImageFix"/>
<feColorMatrix in="SourceAlpha" type="matrix" values="0 0 0 0 0 0 0 0 0 0 0 0 0 0 0 0 0 0 127 0"/>
<feOffset dy="4"/>
<feGaussianBlur stdDeviation="2"/>
<feColorMatrix type="matrix" values="0 0 0 0 0 0 0 0 0 0 0 0 0 0 0 0 0 0 0.25 0"/>
<feBlend mode="normal" in2="BackgroundImageFix" result="effect1_dropShadow"/>
<feBlend mode="normal" in="SourceGraphic" in2="effect1_dropShadow" result="shape"/>
</filter>
</defs>
</svg>
