<svg width="288" height="101" viewBox="0 0 288 101" fill="none" xmlns="http://www.w3.org/2000/svg">
<path fill-rule="evenodd" clip-rule="evenodd" d="M252.275 15.9174C252.275 14.3819 251.037 13.14 249.503 13.14H153.068C151.536 13.14 150.295 14.3827 150.295 15.9174V82.0938C150.295 83.6293 151.533 84.8711 153.068 84.8711H249.503C251.034 84.8711 252.275 83.6284 252.275 82.0938V15.9174Z" fill="#1B201F" stroke="#00BA89" stroke-width="0.68512"/>
<path fill-rule="evenodd" clip-rule="evenodd" d="M246.038 20.4825C246.038 19.825 245.504 19.2913 244.849 19.2913H157.821C157.164 19.2913 156.632 19.8219 156.632 20.4825V69.7901C156.632 70.4476 157.166 70.9813 157.821 70.9813H244.849C245.507 70.9813 246.038 70.4506 246.038 69.7901V20.4825Z" fill="#1B201F" stroke="#00BA89" stroke-width="0.68512"/>
<path fill-rule="evenodd" clip-rule="evenodd" d="M208.547 84.8712H193.924L192.936 97.6697H209.534L208.547 84.8712Z" fill="#1B201F" stroke="#00BA89" stroke-width="0.68512"/>
<path fill-rule="evenodd" clip-rule="evenodd" d="M215.642 100.449V99.1083C215.642 98.315 214.999 97.6697 214.208 97.6697H188.263C187.474 97.6697 186.83 98.3151 186.83 99.1083V100.449C186.83 100.504 186.872 100.547 186.929 100.547H215.543C215.598 100.547 215.642 100.503 215.642 100.449Z" fill="#1B201F" stroke="#00BA89" stroke-width="0.68512"/>
<path d="M201.236 80.3074C200.225 80.3074 199.404 79.4856 199.404 78.4719C199.404 77.4582 200.225 76.6365 201.236 76.6365C202.248 76.6365 203.068 77.4582 203.068 78.4719C203.068 79.4856 202.248 80.3074 201.236 80.3074Z" stroke="#00BA89" stroke-width="0.68512"/>
<path d="M244.453 62.0521H259.307C260.618 62.0521 261.682 63.1182 261.682 64.4332V98.1657C261.682 99.4807 260.618 100.547 259.307 100.547H244.453C243.141 100.547 242.078 99.4807 242.078 98.1657V64.4332C242.078 63.1182 243.141 62.0521 244.453 62.0521Z" fill="#1B201F" stroke="#00BA89" stroke-width="0.68512"/>
<path fill-rule="evenodd" clip-rule="evenodd" d="M261.682 66.3184H242.078V94.8223H261.682V66.3184Z" fill="#1B201F" stroke="#00BA89" stroke-width="0.68512"/>
<path d="M247.523 63.7388H256.138C256.356 63.7388 256.534 63.9164 256.534 64.1356C256.534 64.3548 256.356 64.5325 256.138 64.5325H247.523C247.305 64.5325 247.128 64.3548 247.128 64.1356C247.128 63.9164 247.305 63.7388 247.523 63.7388Z" fill="#00BA89"/>
<path d="M251.84 96.4791H251.841C252.464 96.4791 252.969 96.9855 252.969 97.6101C252.969 98.2348 252.464 98.7412 251.841 98.7412H251.84C251.217 98.7412 250.712 98.2348 250.712 97.6101C250.712 96.9855 251.217 96.4791 251.84 96.4791Z" fill="#00BA89"/>
<path d="M256.137 81.994C255.317 81.994 254.652 81.3277 254.652 80.5058C254.652 79.6839 255.317 79.0176 256.137 79.0176C256.957 79.0176 257.622 79.6839 257.622 80.5058C257.622 81.3277 256.957 81.994 256.137 81.994Z" fill="#1B201F" stroke="#00BA89" stroke-width="0.68512"/>
<path d="M246.136 77.9263H252.276C252.494 77.9263 252.671 78.1039 252.671 78.3231C252.671 78.5423 252.494 78.72 252.276 78.72H246.136C245.918 78.72 245.741 78.5423 245.741 78.3231C245.741 78.1039 245.918 77.9263 246.136 77.9263Z" fill="#00BA89"/>
<path d="M248.117 80.1089H252.276C252.494 80.1089 252.671 80.2866 252.671 80.5058C252.671 80.7249 252.494 80.9026 252.276 80.9026H248.117C247.898 80.9026 247.721 80.7249 247.721 80.5058C247.721 80.2866 247.898 80.1089 248.117 80.1089Z" fill="#00BA89"/>
<path d="M250.097 82.2916H252.276C252.494 82.2916 252.671 82.4693 252.671 82.6885C252.671 82.9077 252.494 83.0853 252.276 83.0853H250.097C249.878 83.0853 249.701 82.9077 249.701 82.6885C249.701 82.4693 249.878 82.2916 250.097 82.2916Z" fill="#00BA89"/>
<path d="M271.731 80.7042C263.337 80.7042 256.533 73.8858 256.533 65.4749C256.533 57.0641 263.337 50.2457 271.731 50.2457C280.125 50.2457 286.93 57.0641 286.93 65.4749C286.93 73.8858 280.125 80.7042 271.731 80.7042Z" fill="#1B201F" stroke="#00BA89" stroke-width="0.68512"/>
<path d="M107.719 47.0709H176.237C177.548 47.0709 178.611 48.137 178.611 49.452V93.9988C178.611 95.3138 177.548 96.3799 176.237 96.3799H107.719C106.407 96.3799 105.344 95.3138 105.344 93.9988V49.452C105.344 48.137 106.407 47.0709 107.719 47.0709Z" fill="#1B201F" stroke="#00BA89" stroke-width="0.68512"/>
<path fill-rule="evenodd" clip-rule="evenodd" d="M183.662 96.4768V98.4633C183.662 99.6123 182.731 100.547 181.585 100.547H102.372C101.227 100.547 100.295 99.6129 100.295 98.4633V96.4768C100.295 96.4228 100.338 96.3799 100.393 96.3799H183.564C183.619 96.3799 183.662 96.4228 183.662 96.4768Z" fill="#1B201F" stroke="#00BA89" stroke-width="0.68512"/>
<path fill-rule="evenodd" clip-rule="evenodd" d="M136.503 96.4245L147.592 96.4243C147.149 97.5962 146.02 98.4086 144.725 98.4086H139.369C138.074 98.4086 136.945 97.5963 136.503 96.4245Z" fill="#1B201F" stroke="#00BA89" stroke-width="0.68512"/>
<path d="M109.461 51.734H174.553C174.99 51.734 175.345 52.0894 175.345 52.5277V91.0075C175.345 91.4459 174.99 91.8012 174.553 91.8012H109.461C109.024 91.8012 108.67 91.4459 108.67 91.0075V52.5277C108.67 52.0894 109.024 51.734 109.461 51.734Z" fill="#1B201F" stroke="#00BA89" stroke-width="0.68512"/>
<path d="M203.464 20.6802C203.191 20.6802 202.969 20.4581 202.969 20.1842C202.969 19.9102 203.191 19.6881 203.464 19.6881C203.737 19.6881 203.959 19.9102 203.959 20.1842C203.959 20.4581 203.737 20.6802 203.464 20.6802Z" fill="#1B201F"/>
<path fill-rule="evenodd" clip-rule="evenodd" d="M231.78 5.6991H186.038V49.6507C186.038 51.1841 187.281 52.4285 188.811 52.4285H229.007C230.538 52.4285 231.78 51.1837 231.78 49.6507V5.6991Z" fill="#1B201F" stroke="#00BA89" stroke-width="0.68512"/>
<path fill-rule="evenodd" clip-rule="evenodd" d="M231.78 3.51388C231.78 1.98166 230.537 0.738403 229.007 0.738403H188.811C187.279 0.738403 186.038 1.98033 186.038 3.51388V6.49277H231.78V3.51388Z" fill="#1B201F" stroke="#00BA89" stroke-width="0.68512"/>
<path d="M227.523 4.50849C227.031 4.50849 226.632 4.10872 226.632 3.61557C226.632 3.12243 227.031 2.72266 227.523 2.72266C228.016 2.72266 228.415 3.12243 228.415 3.61557C228.415 4.10872 228.016 4.50849 227.523 4.50849Z" fill="#00BA89"/>
<path d="M224.553 4.50849C224.061 4.50849 223.662 4.10872 223.662 3.61557C223.662 3.12243 224.061 2.72266 224.553 2.72266C225.045 2.72266 225.444 3.12243 225.444 3.61557C225.444 4.10872 225.045 4.50849 224.553 4.50849Z" fill="#00BA89"/>
<path d="M221.582 4.50849C221.09 4.50849 220.691 4.10872 220.691 3.61557C220.691 3.12243 221.09 2.72266 221.582 2.72266C222.074 2.72266 222.473 3.12243 222.473 3.61557C222.473 4.10872 222.074 4.50849 221.582 4.50849Z" fill="#00BA89"/>
<path d="M224.849 34.6693H225.84C226.058 34.6693 226.235 34.847 226.235 35.0662C226.235 35.2853 226.058 35.463 225.84 35.463H224.849C224.63 35.463 224.453 35.2853 224.453 35.0662C224.453 34.847 224.63 34.6693 224.849 34.6693Z" fill="#00BA89"/>
<path d="M224.849 14.8267H225.84C226.058 14.8267 226.235 15.0043 226.235 15.2235C226.235 15.4427 226.058 15.6204 225.84 15.6204H224.849C224.63 15.6204 224.453 15.4427 224.453 15.2235C224.453 15.0043 224.63 14.8267 224.849 14.8267Z" fill="#00BA89"/>
<path fill-rule="evenodd" clip-rule="evenodd" d="M222.87 14.8267H220.196C219.977 14.8267 219.8 15.0043 219.8 15.2235C219.8 15.4427 219.977 15.6204 220.196 15.6204H222.87C223.088 15.6204 223.266 15.4427 223.266 15.2235C223.266 15.0043 223.088 14.8267 222.87 14.8267Z" fill="#00BA89"/>
<path fill-rule="evenodd" clip-rule="evenodd" d="M218.414 14.8267H215.74C215.522 14.8267 215.345 15.0043 215.345 15.2235C215.345 15.4427 215.522 15.6204 215.74 15.6204H218.414C218.633 15.6204 218.81 15.4427 218.81 15.2235C218.81 15.0043 218.633 14.8267 218.414 14.8267Z" fill="#00BA89"/>
<path fill-rule="evenodd" clip-rule="evenodd" d="M213.959 14.8267H209.008C208.789 14.8267 208.612 15.0043 208.612 15.2235C208.612 15.4427 208.789 15.6204 209.008 15.6204H213.959C214.177 15.6204 214.354 15.4427 214.354 15.2235C214.354 15.0043 214.177 14.8267 213.959 14.8267Z" fill="#00BA89"/>
<path fill-rule="evenodd" clip-rule="evenodd" d="M207.226 14.8267H199.899C199.68 14.8267 199.503 15.0043 199.503 15.2235C199.503 15.4427 199.68 15.6204 199.899 15.6204H207.226C207.445 15.6204 207.622 15.4427 207.622 15.2235C207.622 15.0043 207.445 14.8267 207.226 14.8267Z" fill="#00BA89"/>
<path d="M224.849 18.7952H225.84C226.058 18.7952 226.235 18.9728 226.235 19.192C226.235 19.4112 226.058 19.5889 225.84 19.5889H224.849C224.63 19.5889 224.453 19.4112 224.453 19.192C224.453 18.9728 224.63 18.7952 224.849 18.7952Z" fill="#00BA89"/>
<path d="M224.849 22.7637H225.84C226.058 22.7637 226.235 22.9414 226.235 23.1606C226.235 23.3798 226.058 23.5574 225.84 23.5574H224.849C224.63 23.5574 224.453 23.3798 224.453 23.1606C224.453 22.9414 224.63 22.7637 224.849 22.7637Z" fill="#00BA89"/>
<path d="M224.849 26.7322H225.84C226.058 26.7322 226.235 26.9099 226.235 27.1291C226.235 27.3483 226.058 27.5259 225.84 27.5259H224.849C224.63 27.5259 224.453 27.3483 224.453 27.1291C224.453 26.9099 224.63 26.7322 224.849 26.7322Z" fill="#00BA89"/>
<path d="M224.849 30.7008H225.84C226.058 30.7008 226.235 30.8785 226.235 31.0977C226.235 31.3168 226.058 31.4945 225.84 31.4945H224.849C224.63 31.4945 224.453 31.3168 224.453 31.0977C224.453 30.8785 224.63 30.7008 224.849 30.7008Z" fill="#00BA89"/>
<path d="M224.849 38.6378H225.84C226.058 38.6378 226.235 38.8155 226.235 39.0347C226.235 39.2539 226.058 39.4315 225.84 39.4315H224.849C224.63 39.4315 224.453 39.2539 224.453 39.0347C224.453 38.8155 224.63 38.6378 224.849 38.6378Z" fill="#00BA89"/>
<path d="M224.849 42.6064H225.84C226.058 42.6064 226.235 42.7841 226.235 43.0032C226.235 43.2224 226.058 43.4001 225.84 43.4001H224.849C224.63 43.4001 224.453 43.2224 224.453 43.0032C224.453 42.7841 224.63 42.6064 224.849 42.6064Z" fill="#00BA89"/>
<path d="M216.731 18.7952H222.87C223.088 18.7952 223.266 18.9728 223.266 19.192C223.266 19.4112 223.088 19.5889 222.87 19.5889H216.731C216.512 19.5889 216.335 19.4112 216.335 19.192C216.335 18.9728 216.512 18.7952 216.731 18.7952Z" fill="#00BA89"/>
<path d="M203.859 18.7952H214.948C215.167 18.7952 215.344 18.9728 215.344 19.192C215.344 19.4112 215.167 19.5889 214.948 19.5889H203.859C203.64 19.5889 203.463 19.4112 203.463 19.192C203.463 18.9728 203.64 18.7952 203.859 18.7952Z" fill="#00BA89"/>
<path d="M197.919 18.7952H202.078C202.296 18.7952 202.474 18.9728 202.474 19.192C202.474 19.4112 202.296 19.5889 202.078 19.5889H197.919C197.7 19.5889 197.523 19.4112 197.523 19.192C197.523 18.9728 197.7 18.7952 197.919 18.7952Z" fill="#00BA89"/>
<path d="M218.711 22.7637H222.87C223.088 22.7637 223.266 22.9414 223.266 23.1606C223.266 23.3798 223.088 23.5574 222.87 23.5574H218.711C218.492 23.5574 218.315 23.3798 218.315 23.1606C218.315 22.9414 218.492 22.7637 218.711 22.7637Z" fill="#00BA89"/>
<path d="M212.77 22.7637H216.929C217.148 22.7637 217.325 22.9414 217.325 23.1606C217.325 23.3798 217.148 23.5574 216.929 23.5574H212.77C212.552 23.5574 212.375 23.3798 212.375 23.1606C212.375 22.9414 212.552 22.7637 212.77 22.7637Z" fill="#00BA89"/>
<path d="M208.809 22.7637H210.988C211.207 22.7637 211.384 22.9414 211.384 23.1606C211.384 23.3798 211.207 23.5574 210.988 23.5574H208.809C208.591 23.5574 208.413 23.3798 208.413 23.1606C208.413 22.9414 208.591 22.7637 208.809 22.7637Z" fill="#00BA89"/>
<path d="M213.76 26.7322H222.87C223.088 26.7322 223.266 26.9099 223.266 27.1291C223.266 27.3483 223.088 27.5259 222.87 27.5259H213.76C213.542 27.5259 213.365 27.3483 213.365 27.1291C213.365 26.9099 213.542 26.7322 213.76 26.7322Z" fill="#00BA89"/>
<path d="M205.839 26.7322H211.978C212.197 26.7322 212.374 26.9099 212.374 27.1291C212.374 27.3483 212.197 27.5259 211.978 27.5259H205.839C205.62 27.5259 205.443 27.3483 205.443 27.1291C205.443 26.9099 205.62 26.7322 205.839 26.7322Z" fill="#00BA89"/>
<path d="M213.76 30.7008H222.87C223.088 30.7008 223.266 30.8785 223.266 31.0977C223.266 31.3168 223.088 31.4945 222.87 31.4945H213.76C213.542 31.4945 213.365 31.3168 213.365 31.0977C213.365 30.8785 213.542 30.7008 213.76 30.7008Z" fill="#00BA89"/>
<path d="M199.898 30.7008H211.978C212.197 30.7008 212.374 30.8785 212.374 31.0977C212.374 31.3168 212.197 31.4945 211.978 31.4945H199.898C199.68 31.4945 199.503 31.3168 199.503 31.0977C199.503 30.8785 199.68 30.7008 199.898 30.7008Z" fill="#00BA89"/>
<path d="M216.731 34.6693H222.87C223.088 34.6693 223.266 34.847 223.266 35.0662C223.266 35.2853 223.088 35.463 222.87 35.463H216.731C216.512 35.463 216.335 35.2853 216.335 35.0662C216.335 34.847 216.512 34.6693 216.731 34.6693Z" fill="#00BA89"/>
<path d="M208.809 34.6693H214.948C215.167 34.6693 215.344 34.847 215.344 35.0662C215.344 35.2853 215.167 35.463 214.948 35.463H208.809C208.591 35.463 208.413 35.2853 208.413 35.0662C208.413 34.847 208.591 34.6693 208.809 34.6693Z" fill="#00BA89"/>
<path d="M203.859 34.6693H207.028C207.247 34.6693 207.424 34.847 207.424 35.0662C207.424 35.2853 207.247 35.463 207.028 35.463H203.859C203.641 35.463 203.463 35.2853 203.463 35.0662C203.463 34.847 203.641 34.6693 203.859 34.6693Z" fill="#00BA89"/>
<path d="M210.79 38.6378H222.87C223.088 38.6378 223.266 38.8155 223.266 39.0347C223.266 39.2539 223.088 39.4315 222.87 39.4315H210.79C210.571 39.4315 210.394 39.2539 210.394 39.0347C210.394 38.8155 210.571 38.6378 210.79 38.6378Z" fill="#00BA89"/>
<path d="M217.721 42.6064H222.87C223.088 42.6064 223.266 42.7841 223.266 43.0032C223.266 43.2224 223.088 43.4001 222.87 43.4001H217.721C217.502 43.4001 217.325 43.2224 217.325 43.0032C217.325 42.7841 217.502 42.6064 217.721 42.6064Z" fill="#00BA89"/>
<path fill-rule="evenodd" clip-rule="evenodd" d="M142.374 36.8521H88.1162V75.5486C88.1162 77.0815 89.356 78.3232 90.8871 78.3232H139.603C141.132 78.3232 142.374 77.0793 142.374 75.5486V36.8521Z" fill="#1B201F" stroke="#00BA89" stroke-width="0.68512"/>
<path fill-rule="evenodd" clip-rule="evenodd" d="M142.374 34.6668C142.374 33.1334 141.134 31.8914 139.603 31.8914H90.8871C89.3566 31.8914 88.1162 33.1334 88.1162 34.6668V37.6457H142.374V34.6668Z" fill="#1B201F" stroke="#00BA89" stroke-width="0.68512"/>
<path d="M138.116 35.6615C137.624 35.6615 137.225 35.2617 137.225 34.7685C137.225 34.2754 137.624 33.8756 138.116 33.8756C138.608 33.8756 139.007 34.2754 139.007 34.7685C139.007 35.2617 138.608 35.6615 138.116 35.6615Z" fill="#00BA89"/>
<path d="M135.146 35.6615C134.654 35.6615 134.255 35.2617 134.255 34.7685C134.255 34.2754 134.654 33.8756 135.146 33.8756C135.638 33.8756 136.037 34.2754 136.037 34.7685C136.037 35.2617 135.638 35.6615 135.146 35.6615Z" fill="#00BA89"/>
<path d="M132.176 35.6615C131.684 35.6615 131.285 35.2617 131.285 34.7685C131.285 34.2754 131.684 33.8756 132.176 33.8756C132.668 33.8756 133.067 34.2754 133.067 34.7685C133.067 35.2617 132.668 35.6615 132.176 35.6615Z" fill="#00BA89"/>
<path d="M108.81 67.5089C103.342 67.5089 98.9088 63.067 98.9088 57.5876C98.9088 52.1082 103.342 47.6663 108.81 47.6663C114.278 47.6663 118.711 52.1082 118.711 57.5876C118.711 63.067 114.278 67.5089 108.81 67.5089Z" fill="#1B201F" stroke="#00BA89" stroke-width="0.77076"/>
<path fill-rule="evenodd" clip-rule="evenodd" d="M109.898 46.4757V48.8568H107.522V46.4757H109.898Z" fill="#1B201F" stroke="#00BA89" stroke-width="0.68512"/>
<path fill-rule="evenodd" clip-rule="evenodd" d="M109.998 66.3184V68.6995H107.621V66.3184H109.998Z" fill="#1B201F" stroke="#00BA89" stroke-width="0.68512"/>
<path fill-rule="evenodd" clip-rule="evenodd" d="M119.899 56.4962V58.8773H117.522V56.4962H119.899Z" fill="#1B201F" stroke="#00BA89" stroke-width="0.68512"/>
<path fill-rule="evenodd" clip-rule="evenodd" d="M100.196 56.4962V58.8773H97.8196V56.4962H100.196Z" fill="#1B201F" stroke="#00BA89" stroke-width="0.68512"/>
<path d="M98.9087 48.6583V56.0993" stroke="#00BA89" stroke-width="0.68512" stroke-linecap="square"/>
<path d="M98.9087 59.0757V66.5167" stroke="#00BA89" stroke-width="0.68512" stroke-linecap="square"/>
<path d="M98.908 49.5513C98.2518 49.5513 97.7199 49.0182 97.7199 48.3607C97.7199 47.7032 98.2518 47.1702 98.908 47.1702C99.5642 47.1702 100.096 47.7032 100.096 48.3607C100.096 49.0182 99.5642 49.5513 98.908 49.5513Z" fill="#00BA89"/>
<path d="M98.908 68.4018C98.2518 68.4018 97.7199 67.8687 97.7199 67.2112C97.7199 66.5537 98.2518 66.0206 98.908 66.0206C99.5642 66.0206 100.096 66.5537 100.096 67.2112C100.096 67.8687 99.5642 68.4018 98.908 68.4018Z" fill="#00BA89"/>
<path d="M127.72 45.5828H131.484C132.14 45.5828 132.671 46.1158 132.671 46.7733V50.5434C132.671 51.2009 132.14 51.734 131.484 51.734H127.72C127.064 51.734 126.532 51.2009 126.532 50.5434V46.7733C126.532 46.1158 127.064 45.5828 127.72 45.5828Z" fill="#1B201F" stroke="#00BA89" stroke-width="0.68512"/>
<path d="M127.72 54.512H131.484C132.14 54.512 132.671 55.045 132.671 55.7025V59.4726C132.671 60.1301 132.14 60.6632 131.484 60.6632H127.72C127.064 60.6632 126.532 60.1301 126.532 59.4726V55.7025C126.532 55.045 127.064 54.512 127.72 54.512Z" fill="#1B201F" stroke="#00BA89" stroke-width="0.68512"/>
<path d="M127.72 63.4412H131.484C132.14 63.4412 132.671 63.9742 132.671 64.6317V68.4018C132.671 69.0593 132.14 69.5924 131.484 69.5924H127.72C127.064 69.5924 126.532 69.0593 126.532 68.4018V64.6317C126.532 63.9742 127.064 63.4412 127.72 63.4412Z" fill="#1B201F" stroke="#00BA89" stroke-width="0.68512"/>
<path fill-rule="evenodd" clip-rule="evenodd" d="M88.0169 100.547C84.7359 100.547 82.0762 100.547 82.0762 100.547C82.0762 97.2593 84.7359 94.5941 88.0169 94.5941C91.2978 94.5941 93.9575 97.2593 93.9575 100.547C93.9575 100.547 91.2978 100.547 88.0169 100.547Z" fill="#1B201F" stroke="#00BA89" stroke-width="0.68512"/>
<path d="M87.6205 94.7927C87.6205 94.5734 87.7978 94.3956 88.0166 94.3956C88.2353 94.3956 88.4126 94.5734 88.4126 94.7927V95.2883C88.4126 95.5076 88.2353 95.6854 88.0166 95.6854C87.7978 95.6854 87.6205 95.5076 87.6205 95.2883V94.7927Z" fill="#00BA89"/>
<path d="M275.429 69.0324C275.915 68.5996 276.401 68.1667 276.887 67.7338C277.661 67.0448 278.433 66.3535 279.207 65.6645C279.385 65.5077 279.562 65.3486 279.738 65.1918C279.738 65.3994 279.738 65.6092 279.738 65.8169C279.252 65.384 278.766 64.9511 278.28 64.5182C277.506 63.8292 276.733 63.1379 275.959 62.4489C275.782 62.2921 275.604 62.133 275.429 61.9762C275.256 61.8216 275.258 61.5058 275.429 61.3512C275.613 61.1812 275.87 61.1856 276.057 61.3512C276.543 61.7841 277.029 62.217 277.514 62.6498C278.289 63.3389 279.061 64.0302 279.835 64.7192C280.013 64.876 280.19 65.035 280.366 65.1918C280.536 65.3442 280.536 65.6645 280.366 65.8169C279.88 66.2497 279.394 66.6826 278.908 67.1155C278.133 67.8045 277.361 68.4958 276.587 69.1848C276.41 69.3416 276.232 69.5007 276.057 69.6575C275.884 69.8121 275.597 69.8408 275.429 69.6575C275.274 69.4896 275.245 69.1981 275.429 69.0324Z" fill="#00BA89"/>
<path d="M268.03 61.9773C267.544 62.4102 267.058 62.843 266.572 63.2759C265.798 63.965 265.026 64.6562 264.251 65.3453C264.074 65.5021 263.896 65.6611 263.721 65.8179C263.721 65.6103 263.721 65.4005 263.721 65.1929C264.207 65.6258 264.693 66.0586 265.179 66.4915C265.953 67.1806 266.725 67.8718 267.499 68.5609C267.677 68.7177 267.854 68.8767 268.03 69.0335C268.203 69.1881 268.201 69.5039 268.03 69.6585C267.846 69.8286 267.588 69.8241 267.402 69.6585C266.916 69.2256 266.43 68.7928 265.944 68.3599C265.17 67.6708 264.398 66.9796 263.623 66.2905C263.446 66.1337 263.268 65.9747 263.093 65.8179C262.922 65.6655 262.922 65.3453 263.093 65.1929C263.579 64.76 264.065 64.3271 264.551 63.8943C265.325 63.2052 266.097 62.514 266.872 61.8249C267.049 61.6681 267.227 61.5091 267.402 61.3523C267.575 61.1977 267.861 61.169 268.03 61.3523C268.185 61.5201 268.214 61.8117 268.03 61.9773Z" fill="#00BA89"/>
<path d="M273.311 71.6334C273.178 71.2359 273.047 70.8384 272.914 70.4386C272.597 69.4823 272.28 68.5282 271.962 67.572C271.581 66.4191 271.199 65.2685 270.815 64.1156C270.485 63.1196 270.154 62.1236 269.824 61.1275C269.666 60.6438 269.489 60.1624 269.342 59.6721C269.34 59.6655 269.338 59.6589 269.336 59.6522C269.262 59.4336 269.42 59.1597 269.646 59.1089C269.89 59.0537 270.114 59.1818 270.192 59.4181C270.325 59.8157 270.456 60.2132 270.589 60.6129C270.906 61.5692 271.224 62.5233 271.541 63.4796C271.923 64.6324 272.304 65.7831 272.688 66.9359C273.019 67.9319 273.349 68.928 273.68 69.924C273.837 70.4055 274.015 70.8869 274.161 71.3772C274.163 71.3839 274.166 71.3905 274.168 71.3971C274.241 71.6158 274.084 71.8896 273.857 71.9404C273.613 71.9956 273.389 71.8675 273.311 71.6334Z" fill="#00BA89"/>
<path fill-rule="evenodd" clip-rule="evenodd" d="M33.9669 87.6517C30.5881 87.6517 27.8491 90.5327 27.8491 94.0865C27.8491 97.6404 30.5881 100.521 33.9669 100.521H59.0808C59.4244 100.521 59.703 100.228 59.703 99.8669V98.8542C59.703 98.3963 59.3665 98.0163 58.9322 97.9839C56.0812 97.7709 54.5668 96.4535 54.5668 94.0865C54.5668 91.7195 56.0812 90.4022 58.9322 90.1892C59.3665 90.1568 59.703 89.7768 59.703 89.3189V88.3061C59.703 87.9447 59.4244 87.6517 59.0808 87.6517H33.9669Z" fill="#1B201F" stroke="#00BA89" stroke-width="0.68512"/>
<path d="M59.3912 98.2579C59.3912 98.3635 59.3098 98.449 59.2094 98.449H56.2695H33.8671C31.5749 98.449 29.7168 96.4959 29.7168 94.0865C29.7168 91.6771 31.5749 89.724 33.8671 89.724H56.2695H59.2094C59.3098 89.724 59.3912 89.8095 59.3912 89.9151" stroke="#00BA89" stroke-width="0.68512"/>
<path d="M54.4108 92.2324H33.4514C33.2223 92.2324 33.0366 92.4278 33.0366 92.6687C33.0366 92.9097 33.2223 93.105 33.4514 93.105H54.4108C54.6399 93.105 54.8256 92.9097 54.8256 92.6687C54.8256 92.4278 54.6399 92.2324 54.4108 92.2324Z" fill="#00BA89"/>
<path d="M54.4108 94.959H33.4514C33.2223 94.959 33.0366 95.1544 33.0366 95.3953C33.0366 95.6363 33.2223 95.8316 33.4514 95.8316H54.4108C54.6399 95.8316 54.8256 95.6363 54.8256 95.3953C54.8256 95.1544 54.6399 94.959 54.4108 94.959Z" fill="#00BA89"/>
<path d="M7.41181 96.612C3.97362 96.612 1.18642 93.6822 1.18642 90.0682C1.18642 86.4542 3.97362 83.5244 7.41181 83.5244C10.85 83.5244 13.6372 86.4542 13.6372 90.0682C13.6372 93.6822 10.85 96.612 7.41181 96.612Z" fill="#1B201F" stroke="#00BA89" stroke-width="0.68512"/>
<path d="M7.41198 93.8854C5.40638 93.8854 3.78053 92.1764 3.78053 90.0682C3.78053 87.96 5.40638 86.251 7.41198 86.251C9.41758 86.251 11.0435 87.96 11.0435 90.0682C11.0435 92.1764 9.41758 93.8854 7.41198 93.8854Z" fill="#1B201F" stroke="#00BA89" stroke-width="0.68512"/>
<path d="M15.7125 82.3247C14.5664 82.3247 13.6373 81.3481 13.6373 80.1434C13.6373 78.9387 14.5664 77.9621 15.7125 77.9621C16.8585 77.9621 17.7876 78.9387 17.7876 80.1434C17.7876 81.3481 16.8585 82.3247 15.7125 82.3247Z" fill="#1B201F" stroke="#00BA89" stroke-width="0.68512"/>
<path fill-rule="evenodd" clip-rule="evenodd" d="M24.8435 79.5981C25.0726 79.5981 25.2583 79.7934 25.2583 80.0343V98.3569C25.2583 99.5616 24.3298 100.538 23.1845 100.538H8.8702C7.72486 100.538 6.79638 99.5616 6.79638 98.3569V80.0343C6.79638 79.7934 6.98207 79.5981 7.21113 79.5981H24.8435Z" fill="#1B201F" stroke="#00BA89" stroke-width="0.68512"/>
<path d="M12.2878 85.4875H15.1951C15.8823 85.4875 16.4395 86.0734 16.4395 86.7962V91.1588C16.4395 91.8816 15.8823 92.4676 15.1951 92.4676H12.2878C11.6006 92.4676 11.0435 91.8816 11.0435 91.1588V86.7962C11.0435 86.0734 11.6006 85.4875 12.2878 85.4875Z" fill="#1B201F" stroke="#00BA89" stroke-width="0.68512"/>
<path d="M13.7935 79.7617V84.724" stroke="#00BA89" stroke-width="0.68512" stroke-linecap="square"/>
</svg>
