<svg width="320" height="224" viewBox="0 0 320 224" fill="none" xmlns="http://www.w3.org/2000/svg">
<g clip-path="url(#clip0)">
<path d="M-107.333 179.2L-89.5092 160.51C-71.685 142.1 -36.037 104.3 -0.3888 74.6903C35.2594 44.8004 70.9074 22.4004 106.556 48.5104C142.204 74.9003 177.852 149.1 213.5 175.49C249.149 201.6 284.796 179.2 302.62 168L320.445 156.8V224H302.62C284.796 224 249.149 224 213.5 224C177.852 224 142.204 224 106.556 224C70.9074 224 35.2594 224 -0.3888 224C-36.037 224 -71.685 224 -89.5092 224H-107.333V179.2Z" fill="#00BA89"/>
</g>
<defs>
<clipPath id="clip0">
<rect width="320" height="224" fill="white"/>
</clipPath>
</defs>
</svg>
