<svg width="320" height="201" viewBox="0 0 320 201" fill="none" xmlns="http://www.w3.org/2000/svg">
<g clip-path="url(#clip0)">
<path d="M0 113.126L17.7778 109.378C35.5556 105.349 70.1111 88.9385 105.667 103.786C141.222 118.634 178.333 187.224 213.889 198.324C249.444 209.849 284.444 173.224 302.222 165.942L320 158.376V-6.10352e-05H302.222C284.444 -6.10352e-05 248.889 -6.10352e-05 213.333 -6.10352e-05C177.778 -6.10352e-05 142.222 -6.10352e-05 106.667 -6.10352e-05C71.1111 -6.10352e-05 35.5556 -6.10352e-05 17.7778 -6.10352e-05H0V113.126Z" fill="#00BA89"/>
</g>
<defs>
<clipPath id="clip0">
<rect width="320" height="201" fill="white"/>
</clipPath>
</defs>
</svg>
